<svg version="1.1" xmlns="http://www.w3.org/2000/svg" viewBox="0 0 1704.4886271158857 1160.8341217041018" width="5113.465881347657" height="3482.5023651123056">
  <!-- svg-source:excalidraw -->
  
  <defs>
    <style>
      @font-face {
        font-family: "Virgil";
        src: url("https://excalidraw.com/Virgil.woff2");
      }
      @font-face {
        font-family: "Cascadia";
        src: url("https://excalidraw.com/Cascadia.woff2");
      }
    </style>
  </defs>
  <rect x="0" y="0" width="1704.4886271158857" height="1160.8341217041018" fill="#ffffff"></rect><g stroke-linecap="round" transform="translate(506.3584899902339 725.3831619989307) rotate(0 67.56791687011719 28.290985107421875)"><path d="M-0.97 -1.76 C41.94 0.96, 83.01 1.72, 136.86 0.51 M0.41 -0.2 C50.94 -1.32, 104.42 -1.9, 134.7 0.11 M135.28 -1.47 C137.46 22.79, 135.74 44.44, 135.44 57.76 M134.57 0.43 C134.41 17.16, 135.02 33.07, 134.38 55.68 M136.84 58.57 C89.01 58.55, 39.7 57.52, -0.3 56.57 M135.35 56.3 C104.69 57.6, 75.28 56.69, 0.86 56.54 M-1.8 57.68 C1.48 41.32, -0.72 23.31, 1.93 -1.07 M0.69 55.67 C0.86 37.42, 0.95 20.92, 0.48 0.2" stroke="#000000" stroke-width="1" fill="none"></path></g><g stroke-linecap="round" transform="translate(930.2712860107417 960.2267594110401) rotate(0 67.56791687011719 28.290985107421875)"><path d="M-0.07 -0.95 C50.29 1.14, 105.65 1.59, 134.4 0.34 M-0.31 0.24 C54.3 -1.22, 107.9 -1.19, 135.91 0.91 M134.97 -1.72 C133.43 17.75, 136.95 40.31, 133.93 54.6 M134.65 0.02 C136.47 17.59, 135.7 32.79, 134.28 56.89 M134.81 57.24 C104.31 58.78, 72.54 55.93, -1.69 57.72 M135.32 57.46 C95.88 56.26, 56.03 56.76, -0.83 56.43 M-1.88 58.08 C0.92 40.27, 0.43 23.11, -1.99 0.49 M0.05 56.92 C1.34 37.05, 0.28 16.08, 0.38 0.15" stroke="#000000" stroke-width="1" fill="none"></path></g><g transform="translate(524.0432434082027 743.988447643462) rotate(0 40 12.5)"><text x="0" y="18" font-family="Virgil, Segoe UI Emoji" font-size="20px" fill="#000000" text-anchor="start" style="white-space: pre;" direction="ltr">bucket 1</text></g><g transform="translate(950.6797180175777 978.4351639520557) rotate(0 39 12.5)"><text x="0" y="18" font-family="Virgil, Segoe UI Emoji" font-size="20px" fill="#000000" text-anchor="start" style="white-space: pre;" direction="ltr">shard 6</text></g><g stroke-linecap="round" transform="translate(53.466125488280795 710.5076126825245) rotate(0 176 42.5)"><path d="M-1.08 0.2 C135.61 0.67, 269.47 -0.49, 351.17 0.61 M-0.51 -0.26 C109.84 -2.11, 219.64 -2.34, 351.77 -0.03 M352.58 0.83 C352.18 20.62, 352.79 38.85, 352.95 83.84 M352.59 0.48 C352.69 26.11, 352.26 52.87, 351.54 84.14 M351.67 84.8 C238.52 87.14, 126.82 86.91, 1.11 85.31 M352.38 84.87 C274.73 84.34, 197.45 84, 0 85.49 M-0.75 84.99 C-0.74 54.04, -0.87 27.63, -1.49 0.12 M0.11 84.8 C1.68 54.74, 1.11 23.25, -0.42 0.38" stroke="#000000" stroke-width="1" fill="none"></path></g><g transform="translate(58.466125488280795 734.0076126825245) rotate(0 171 19)"><text x="171" y="15" font-family="Helvetica, Segoe UI Emoji" font-size="16px" fill="#000000" text-anchor="middle" style="white-space: pre;" direction="ltr">group 1 </text><text x="171" y="34" font-family="Helvetica, Segoe UI Emoji" font-size="16px" fill="#000000" text-anchor="middle" style="white-space: pre;" direction="ltr">127.0.0.1:8081,127.0.0.1:8082,127.0.0.1:8083</text></g><g stroke-linecap="round" transform="translate(478.06896972656205 946.0311417352589) rotate(0 176 42.5)"><path d="M-0.13 -1.26 C80.6 -0.08, 160.77 -1.08, 351.53 -0.41 M0.16 0.5 C118.11 2.36, 234.82 1.34, 351.75 -0.56 M350.81 0.75 C351.75 27.1, 351.86 52.16, 353.42 83.93 M351.57 0.2 C350.94 33.42, 350.93 64.85, 352.79 85.43 M351.76 86.2 C224.72 85.05, 99.02 82.73, -0.93 86.06 M352.42 85.27 C253.76 84.88, 156.98 83.76, 0.18 84.37 M-0.22 83.28 C-0.17 67.53, -1.16 47.92, -0.56 -0.26 M0.75 85.18 C-0.75 57.31, -0.82 28.86, -0.92 -0.01" stroke="#000000" stroke-width="1" fill="none"></path></g><g transform="translate(483.06896972656205 969.5311417352589) rotate(0 171 19)"><text x="171" y="15" font-family="Helvetica, Segoe UI Emoji" font-size="16px" fill="#000000" text-anchor="middle" style="white-space: pre;" direction="ltr">group 2</text><text x="171" y="34" font-family="Helvetica, Segoe UI Emoji" font-size="16px" fill="#000000" text-anchor="middle" style="white-space: pre;" direction="ltr">127.2.0.1:8081,127.2.0.1:8082,127.2.0.1:8083</text></g><g stroke-linecap="round" transform="translate(641.7332305908199 727.468916393462) rotate(0 67.56791687011719 28.290985107421875)"><path d="M0.01 -0.49 C53.02 -1.05, 103.23 -1.62, 136.82 -0.47 M0.78 -0.21 C42.9 -0.53, 85.76 1.13, 134.37 0.7 M136.33 -1.65 C135.7 18.97, 133.38 41.29, 136.88 56.55 M135.22 0.57 C135.41 20.86, 135.26 42.95, 135.4 56.22 M136.39 57.59 C93.63 55.46, 52.81 54.08, -1.92 56.9 M134.41 56.6 C87.68 56.43, 41.45 55.79, -0.69 55.77 M-1.79 54.78 C1.04 39.66, -2.04 20.28, 1.69 1.77 M0.13 56.55 C-0.83 37.6, -0.2 20.03, 0.49 0.38" stroke="#000000" stroke-width="1" fill="none"></path></g><g transform="translate(659.4179840087886 746.0742020379932) rotate(0 44.5 12.5)"><text x="0" y="18" font-family="Virgil, Segoe UI Emoji" font-size="20px" fill="#000000" text-anchor="start" style="white-space: pre;" direction="ltr">bucket 2</text></g><g stroke-linecap="round" transform="translate(777.4249420166011 727.1089615594776) rotate(0 67.56791687011719 28.290985107421875)"><path d="M-0.64 1.24 C31.98 1.72, 65.26 2.91, 133.62 -1.8 M0.11 0.81 C42.66 1.67, 87.77 1, 136.04 0.28 M134.97 0.02 C135.72 11.95, 133.56 25.52, 133.61 57.21 M135.03 -0.53 C136.07 15.6, 135.28 30.74, 135.86 57.36 M134.07 58.13 C98.87 58.07, 62.39 58, 1.26 56.27 M135.89 56.35 C91.94 57.17, 50.9 55.83, 0.6 55.8 M-2 57.99 C-1.23 42.97, -0.51 25.9, 0.42 -1.23 M-0.21 56.86 C0.46 39.44, -1.06 22.5, -0.09 0.6" stroke="#000000" stroke-width="1" fill="none"></path></g><g transform="translate(782.4249420166011 745.3999466668995) rotate(0 62.5 10)"><text x="62.5" y="14" font-family="Virgil, Segoe UI Emoji" font-size="16px" fill="#000000" text-anchor="middle" style="white-space: pre;" direction="ltr">...</text></g><g stroke-linecap="round" transform="translate(912.1616973876949 727.1220536004932) rotate(0 67.56791687011719 28.290985107421875)"><path d="M-0.71 1.21 C30.07 -0.94, 61.4 0.17, 136.49 -0.16 M0 0.51 C35.65 0.62, 71.1 1.58, 134.94 -0.77 M134.75 1.39 C136.76 17.62, 133.76 33.86, 136.31 57.08 M134.19 -0.81 C135.35 19.03, 134.05 38.94, 135.72 56.5 M133.7 58.56 C89.93 57.86, 41.91 55.83, 1.87 56.01 M134.95 56.97 C101.94 56.86, 70.14 55.39, 0.2 56.33 M-1.05 55.11 C1.67 45.01, 1.42 31.24, -0.5 -1.59 M-0.4 57.17 C-0.04 40.61, 0.65 23.67, 0.2 0.52" stroke="#000000" stroke-width="1" fill="none"></path></g><g transform="translate(917.1616973876949 745.4130387079151) rotate(0 62.5 10)"><text x="62.5" y="14" font-family="Virgil, Segoe UI Emoji" font-size="16px" fill="#000000" text-anchor="middle" style="white-space: pre;" direction="ltr">bucket5</text></g><g stroke-linecap="round" transform="translate(1065.5497182210283 960.9895055861705) rotate(0 67.56791687011719 28.290985107421875)"><path d="M-1.4 -1.19 C43.97 0.57, 89.21 -0.75, 135.52 0.81 M-0.78 0.17 C37.41 -0.14, 73.94 -1.32, 135.33 -0.72 M136.22 -1.93 C135.41 13.87, 135.14 31.28, 134.01 57.84 M135.4 0.93 C135.88 16.3, 134.76 34.39, 135.76 56.81 M134.71 56.98 C106.45 59.12, 78.42 56.53, 0.4 56.14 M135.55 55.69 C98.11 55.86, 60.42 56.25, -0.29 57.05 M-1.78 54.8 C0.24 36.4, -1.29 16.42, -1.81 0.49 M-0.11 56.29 C1.35 39.98, -0.05 24.15, 0.92 0.26" stroke="#000000" stroke-width="1" fill="none"></path></g><g stroke-linecap="round" transform="translate(1200.698847452799 962.5302058628631) rotate(0 67.56791687011719 28.290985107421875)"><path d="M1.38 -1.92 C30.58 -1.52, 64.17 -0.8, 133.46 -1.96 M0.26 0.64 C54.03 -0.93, 106.58 -0.49, 134.89 -0.24 M135.43 0.71 C134.61 13.96, 134.79 25.9, 136.1 58.01 M135.46 -0.24 C134.19 11.89, 133.73 24.77, 134.97 55.74 M136.88 55.48 C96.15 55.53, 61.13 56.72, 0.6 56.46 M134.61 56.38 C101.85 54.96, 68.54 54.53, -0.42 56.58 M0.23 55.32 C-1.14 41.14, 1.75 22.4, -0.46 0.7 M-0.4 57.05 C0.19 45.06, 0.72 31.63, 0.86 0.17" stroke="#000000" stroke-width="1" fill="none"></path></g><g stroke-linecap="round" transform="translate(1335.7914581298824 960.7466873895557) rotate(0 67.56791687011719 28.290985107421875)"><path d="M-1.62 -1.04 C39.29 0.05, 78.33 1.01, 133.22 -0.85 M-0.9 0.12 C39.83 0.02, 81.39 1.47, 134.43 -0.23 M135.58 -0.8 C135.61 18.58, 136.53 38.6, 135.01 58.3 M134.45 -0.69 C136.5 17.76, 135.37 35.57, 135.18 57.2 M136.14 55.45 C101.27 56.88, 70.56 54.96, 1.28 55.68 M134.56 56.77 C95.18 56.99, 53.81 57.89, 0.1 56.89 M0.01 56.44 C1.05 42.51, 0.31 25.66, 1.83 -0.37 M-0.12 56.59 C-0.53 42.53, 0.86 29.44, -0.48 0.2" stroke="#000000" stroke-width="1" fill="none"></path></g><g transform="translate(1405.497395833333 977.9083390008839) rotate(0 7 10)"><text x="0" y="14" font-family="Virgil, Segoe UI Emoji" font-size="16px" fill="#000000" text-anchor="start" style="white-space: pre;" direction="ltr">...</text></g><g transform="translate(1070.5497182210283 979.2804906935924) rotate(0 62.5 10)"><text x="62.5" y="14" font-family="Virgil, Segoe UI Emoji" font-size="16px" fill="#000000" text-anchor="middle" style="white-space: pre;" direction="ltr">...</text></g><g transform="translate(1205.698847452799 980.821190970285) rotate(0 62.5 10)"><text x="62.5" y="14" font-family="Virgil, Segoe UI Emoji" font-size="16px" fill="#000000" text-anchor="middle" style="white-space: pre;" direction="ltr">...</text></g><g stroke-linecap="round"><g transform="translate(409.55187988281205 751.5789932977589) rotate(0 48.820670748027055 1.8110557259898599)"><path d="M-0.55 0.93 C15.34 1.6, 79.75 2.8, 96.02 3.25 M1.36 0.37 C17.55 0.73, 82.37 1.03, 98.19 1.23" stroke="#000000" stroke-width="1" fill="none"></path></g></g><g stroke-linecap="round"><g transform="translate(831.0671386718745 987.1278824579151) rotate(0 50.076034724749604 -0.13855694644149708)"><path d="M0.19 0.57 C17.03 0.55, 84.69 -0.69, 101.33 -0.85 M-1.17 -0.18 C15.54 0, 84.07 0.16, 100.75 0.32" stroke="#000000" stroke-width="1" fill="none"></path></g></g><g stroke-linecap="round"><g transform="translate(557.2426741998988 717.7445876223302) rotate(0 -0.8117738001494104 -34.31978487677924)"><path d="M0.64 -0.07 C0.31 -11.23, -0.87 -55.66, -1.17 -66.75 M-0.48 -1.16 C-1.06 -12.69, -2 -57.33, -2.27 -68.57" stroke="#000000" stroke-width="1" fill="none"></path></g><g transform="translate(557.2426741998988 717.7445876223302) rotate(0 -0.8117738001494104 -34.31978487677924)"><path d="M8.51 -41.07 C5.55 -51.26, 1.77 -60.16, -2.88 -68.16 M8.09 -40.77 C5.63 -46.74, 2.99 -54.42, -1.74 -69.53" stroke="#000000" stroke-width="1" fill="none"></path></g><g transform="translate(557.2426741998988 717.7445876223302) rotate(0 -0.8117738001494104 -34.31978487677924)"><path d="M-12.01 -40.61 C-7.42 -51.08, -3.67 -60.15, -2.88 -68.16 M-12.42 -40.3 C-10.04 -46.36, -7.84 -54.15, -1.74 -69.53" stroke="#000000" stroke-width="1" fill="none"></path></g></g><g stroke-linecap="round" transform="translate(502.8170776367183 580.3607926141651) rotate(0 53.5 29.5)"><path d="M0.53 1.14 C34.9 -1.53, 70.03 -1.03, 107.02 0.76 M-0.31 0.66 C35.9 0.66, 72.04 -0.72, 107.01 0.02 M108.05 1.93 C107.19 15.85, 106.26 31.28, 106.33 59.09 M107.61 -0.27 C105.95 12.24, 107.66 24.68, 106.08 59.22 M105.05 57.04 C77.03 59.38, 48.55 59.64, 1.27 60.55 M107.47 59.85 C73.68 59.18, 41.72 58.64, -0.31 58.46 M0.52 60.95 C0.27 41.69, -0.38 23.51, -0.02 -1.06 M-0.69 59.52 C-0.11 40.05, -0.56 19.66, 0.6 -0.46" stroke="#000000" stroke-width="1" fill="none"></path></g><g transform="translate(507.8170776367183 599.8607926141651) rotate(0 48.5 10)"><text x="48.5" y="14" font-family="Virgil, Segoe UI Emoji" font-size="16px" fill="#000000" text-anchor="middle" style="white-space: pre;" direction="ltr">KvStore</text></g><g stroke-linecap="round" transform="translate(1101.3576049804683 725.6272721063526) rotate(0 67.56791687011719 28.290985107421875)"><path d="M0.57 -0.73 C42.2 0.83, 80.62 -0.52, 134.52 -1.62 M134.14 -0.63 C134.04 17.29, 134.37 35.11, 133.43 58.13 M135.05 56.93 C100.44 56.58, 62.67 56.15, -0.11 55.96 M1.11 55.05 C0.21 35.9, -1.19 16.25, -1.25 0.77" stroke="#000000" stroke-width="1.5" fill="none" stroke-dasharray="1.5 7"></path></g><g transform="translate(1121.7660369873042 743.8356766473682) rotate(0 43.5 12.5)"><text x="0" y="18" font-family="Virgil, Segoe UI Emoji" font-size="20px" fill="#000000" text-anchor="start" style="white-space: pre;" direction="ltr">bucket 6</text></g><g stroke-linecap="round" transform="translate(1236.8424377441402 726.3899165562225) rotate(0 67.56791687011719 28.290985107421875)"><path d="M1.78 0.83 C40.38 -0.02, 80.61 -1.13, 135.47 1.64 M-0.78 -0.31 C29.8 0.06, 59.98 1.2, 134.84 -0.12 M136.99 -0.86 C135.74 19.27, 135 40.49, 136.35 57.87 M135.42 -0.13 C135.04 21.56, 134.82 43, 135.19 55.96 M135.11 57.47 C95.87 54.34, 56.74 56.95, -0.62 57.12 M135.06 55.86 C101.97 57.17, 70.57 57.78, -0.56 56.32 M-1.62 57.23 C1.07 39.34, 2.01 27.64, 1.72 -1.42 M0.28 55.85 C1.28 42.45, 0.91 27.56, -0.58 -0.22" stroke="#000000" stroke-width="1" fill="none"></path></g><g stroke-linecap="round" transform="translate(1372.4184061686194 727.489383515858) rotate(0 67.56791687011719 28.290985107421875)"><path d="M0.83 -0.24 C43.9 -1.82, 87.2 -0.87, 136.77 -1.5 M-0.31 -0.62 C33.45 0.2, 68.4 0.76, 135.01 0.63 M134.28 0.63 C133.95 16.61, 134.61 34.66, 136.43 58.11 M135 -0.41 C134.95 19.49, 135.09 40.28, 134.51 56.42 M136.03 55.62 C92.01 54.78, 52.44 55.94, 0.54 55.43 M134.41 56.18 C102.22 57.43, 69.87 55.91, -0.26 56.29 M0.65 57.22 C-1.93 45.47, 1.68 32.91, -1.42 -0.83 M-0.73 57.34 C0.77 45.22, 0.5 32.51, -0.22 0.79" stroke="#000000" stroke-width="1" fill="none"></path></g><g stroke-linecap="round" transform="translate(1507.084075927734 726.1472000848682) rotate(0 67.56791687011719 28.290985107421875)"><path d="M-0.24 -0.52 C35.02 -2.19, 71.59 1.07, 133.64 -1 M-0.62 -0.36 C35.42 1.2, 72.26 0.3, 135.77 -0.04 M135.77 -1.29 C135.55 17.35, 136.88 37.23, 136.67 57.69 M134.73 0.25 C134.67 13.02, 135.35 24.65, 134.97 56.7 M134.17 55.63 C105.68 58.83, 79.18 57.72, -1.15 55.46 M134.73 56.63 C90.24 56.27, 42.86 55.35, -0.3 55.83 M0.64 54.64 C2.04 41.43, 2.18 21.54, -0.83 -1.85 M0.76 57.06 C0.22 42.72, -0.74 28.2, 0.79 -0.58" stroke="#000000" stroke-width="1" fill="none"></path></g><g transform="translate(1540.4897613525386 745.4118561517628) rotate(0 37.5 10)"><text x="0" y="14" font-family="Virgil, Segoe UI Emoji" font-size="16px" fill="#000000" text-anchor="start" style="white-space: pre;" direction="ltr">bucket 10</text></g><g transform="translate(1241.8424377441402 744.6809016636444) rotate(0 62.5 10)"><text x="62.5" y="14" font-family="Virgil, Segoe UI Emoji" font-size="16px" fill="#000000" text-anchor="middle" style="white-space: pre;" direction="ltr">...</text></g><g transform="translate(1377.4184061686194 745.7803686232799) rotate(0 62.5 10)"><text x="62.5" y="14" font-family="Virgil, Segoe UI Emoji" font-size="16px" fill="#000000" text-anchor="middle" style="white-space: pre;" direction="ltr">...</text></g><g transform="translate(1107.1355438232417 661.1213593255909) rotate(0 115.5 10)"><text x="0" y="14" font-family="Virgil, Segoe UI Emoji" font-size="16px" fill="#000000" text-anchor="start" style="white-space: pre;" direction="ltr">bucket State -&gt; MigratingSrc</text></g><g transform="translate(777.4866333007808 873.5279679071339) rotate(0 49 10)"><text x="0" y="14" font-family="Virgil, Segoe UI Emoji" font-size="16px" fill="#000000" text-anchor="start" style="white-space: pre;" direction="ltr">Add group 2</text></g><g stroke-linecap="round"><g transform="translate(1223.2673066504294 821.2943464759919) rotate(0 1.0928798025847755 52.38455843709406)"><path d="M1.56 -1.69 C1.68 15.45, -1.69 85.73, -1.64 103.76 M-1.03 3.56 C0.22 20.95, 3.5 90.14, 3.83 106.46" stroke="#000000" stroke-width="1" fill="none"></path></g><g transform="translate(1223.2673066504294 821.2943464759919) rotate(0 1.0928798025847755 52.38455843709406)"><path d="M-9.88 76.23 C-7.3 87.01, -1 86.84, 1.47 107.08 M-6.62 79.71 C-6.45 86.42, -4 89.72, 1.93 104.5" stroke="#000000" stroke-width="1" fill="none"></path></g><g transform="translate(1223.2673066504294 821.2943464759919) rotate(0 1.0928798025847755 52.38455843709406)"><path d="M10.63 75.47 C8.81 86.64, 10.7 86.64, 1.47 107.08 M13.88 78.95 C9.92 85.55, 8.22 89, 1.93 104.5" stroke="#000000" stroke-width="1" fill="none"></path></g></g><g transform="translate(1244.4084777832027 855.249189830962) rotate(0 41.5 10)"><text x="0" y="14" font-family="Virgil, Segoe UI Emoji" font-size="16px" fill="#000000" text-anchor="start" style="white-space: pre;" direction="ltr">send data</text></g><g transform="translate(965.5590820312495 1045.3993057977589) rotate(0 123 10)"><text x="0" y="14" font-family="Virgil, Segoe UI Emoji" font-size="16px" fill="#000000" text-anchor="start" style="white-space: pre;" direction="ltr">bucket State -&gt; MigratingDest</text></g><g stroke-linecap="round" transform="translate(10 503.34877014160173) rotate(0 842.2443135579429 323.74267578125006)"><path d="M0.27 0.57 C653.19 1.87, 1305.95 1.17, 1684.67 0.56 M-0.25 -0.33 C390.9 5.22, 782.85 5.46, 1684.69 -0.19 M1684.24 -0.24 C1683.14 251.25, 1683.6 501.73, 1685.19 648.15 M1684.43 -0.12 C1684.39 221.53, 1683.86 443.49, 1684.43 647.64 M1684.63 647.18 C1287.58 640.48, 890.51 641.37, -0.23 646.89 M1684.42 647.72 C1168.57 650.03, 652.32 650.3, -0.34 647.13 M0.33 647.65 C-1.46 453.02, -2.83 257.94, 0.3 0.28 M-0.37 647.54 C1.23 429.7, 1.11 212.9, -0.05 0.02" stroke="#000000" stroke-width="1" fill="none"></path></g><g transform="translate(49.13279215494765 521.4255930582683) rotate(0 59 12.5)"><text x="0" y="18" font-family="Virgil, Segoe UI Emoji" font-size="20px" fill="#000000" text-anchor="start" style="white-space: pre;" direction="ltr">ShardServer</text></g><g stroke-linecap="round" transform="translate(10.323282877604129 10) rotate(0 840.5178578694663 195.7686996459961)"><path d="M0.22 0.44 C522.91 4.1, 1045.14 4, 1681.24 -0.65 M-0.22 -0.27 C505.63 6.13, 1011.22 5.88, 1680.67 0.28 M1680.94 -0.81 C1683.76 89.97, 1681.96 179.27, 1680.12 392.32 M1680.99 0.2 C1682.61 100.04, 1683.29 201.19, 1680.91 391.08 M1680.82 391.8 C1065.63 390.46, 451.92 391.3, 0.31 391.28 M1680.74 391.35 C1030.33 388.8, 379.64 389.14, 0.17 391.47 M-0.39 391.45 C2.04 238.87, 1.18 85.62, -0.59 0.44 M0.36 391.51 C-0.56 260.16, 0.38 129.27, -0.54 0.29" stroke="#000000" stroke-width="1" fill="none"></path></g><g transform="translate(50.03489176432265 39.72459411621088) rotate(0 60 12.5)"><text x="0" y="18" font-family="Virgil, Segoe UI Emoji" font-size="20px" fill="#000000" text-anchor="start" style="white-space: pre;" direction="ltr">ConfigServer</text></g><g stroke-linecap="round" transform="translate(1162.8483683268225 82.46086120605452) rotate(0 176 42.5)"><path d="M1.12 0.59 C71.58 0.49, 143.69 0.13, 351.69 0.88 M0.06 -0.27 C119.69 -1.52, 239 -1.28, 352.06 0.06 M351.03 1.64 C351.92 26.14, 353.58 53.97, 352.36 86.77 M352.54 1 C352.2 22.54, 352.46 46.53, 352.71 84.74 M352.61 85.08 C216.26 84.93, 82.09 86.65, 0.62 85.59 M352 85.39 C234.41 84.89, 117.27 84.95, 0.62 85.43 M0.74 83.63 C0.86 67.29, 1.43 47.55, -1.24 -1.82 M0.21 85.76 C1 50.34, 0.09 17.81, 0.23 0.44" stroke="#000000" stroke-width="1" fill="none"></path></g><g transform="translate(1167.8483683268225 96.46086120605452) rotate(0 171 28.5)"><text x="171" y="15" font-family="Helvetica, Segoe UI Emoji" font-size="16px" fill="#000000" text-anchor="middle" style="white-space: pre;" direction="ltr">group 1 </text><text x="171" y="34" font-family="Helvetica, Segoe UI Emoji" font-size="16px" fill="#000000" text-anchor="middle" style="white-space: pre;" direction="ltr">127.0.0.1:8081,127.0.0.1:8082,127.0.0.1:8083</text><text x="171" y="53" font-family="Helvetica, Segoe UI Emoji" font-size="16px" fill="#000000" text-anchor="middle" style="white-space: pre;" direction="ltr">bucket [1,2,3,4,5,6,7,8,9,10]</text></g><g stroke-linecap="round" transform="translate(1167.8711547851556 219.07020568847628) rotate(0 176 42.5)"><path d="M0.55 -0.53 C123.6 1.61, 243.98 0.38, 351.63 1.07 M-0.48 -0.38 C108.06 -2.48, 215.24 -1.69, 351.96 0.62 M351.48 0.57 C350.57 32.4, 352.85 66.69, 353.62 86.46 M351.05 0.94 C351.07 23.03, 350.38 46.23, 351.42 85.54 M353.24 85.02 C241.85 85.65, 130.03 84.81, 0.71 84.36 M351.94 84.71 C275.94 84.97, 200.43 85.77, 0.61 84.65 M-0.73 84.03 C1.45 54.83, 0.33 24.72, -0.89 -1.1 M0.18 85.55 C0.33 60.42, 0.18 34.15, -0.49 -0.77" stroke="#000000" stroke-width="1" fill="none"></path></g><g transform="translate(1172.8711547851556 233.07020568847628) rotate(0 171 28.5)"><text x="171" y="15" font-family="Helvetica, Segoe UI Emoji" font-size="16px" fill="#000000" text-anchor="middle" style="white-space: pre;" direction="ltr">group 2</text><text x="171" y="34" font-family="Helvetica, Segoe UI Emoji" font-size="16px" fill="#000000" text-anchor="middle" style="white-space: pre;" direction="ltr">127.2.0.1:8081,127.2.0.1:8082,127.2.0.1:8083</text><text x="171" y="53" font-family="Helvetica, Segoe UI Emoji" font-size="16px" fill="#000000" text-anchor="middle" style="white-space: pre;" direction="ltr">bucket []</text></g><g stroke-linecap="round" transform="translate(940.8463541666665 37.449111938476335) rotate(0 325.6076558430989 157.76082356770834)"><path d="M0.49 0.13 C224.91 -1.11, 450.38 -1.92, 650.75 0.7 M-0.03 -0.16 C239.36 0.21, 478.12 0.48, 650.98 0.24 M650.58 -0.62 C653.57 83.84, 652.79 167, 650.74 315.44 M651.72 0.7 C650.91 78.31, 650.52 156.11, 651.31 315.73 M650.99 316.28 C408.79 313.4, 166.56 313.79, -0.51 315.21 M650.91 315.37 C503.76 313.81, 356.81 314.05, -0.13 315.76 M0.83 315.77 C2.55 231.31, 3.59 148.82, 0.57 1.38 M-0.14 315.03 C-1.91 238.49, -1.83 159.71, 0.48 0.61" stroke="#000000" stroke-width="1" fill="none"></path></g><g transform="translate(960.7994588216143 44.22100321451802) rotate(0 62 12.5)"><text x="0" y="18" font-family="Virgil, Segoe UI Emoji" font-size="20px" fill="#000000" text-anchor="start" style="white-space: pre;" direction="ltr">Config Table</text></g><g transform="translate(69.08798217773415 97.01661682128906) rotate(0 405.5 127)"><text x="0" y="17.4" font-family="Virgil, Segoe UI Emoji" font-size="20px" fill="#000000" text-anchor="start" style="white-space: pre;" direction="ltr">migrate bucket6</text><text x="0" y="42.8" font-family="Virgil, Segoe UI Emoji" font-size="20px" fill="#000000" text-anchor="start" style="white-space: pre;" direction="ltr"></text><text x="0" y="68.19999999999999" font-family="Virgil, Segoe UI Emoji" font-size="20px" fill="#000000" text-anchor="start" style="white-space: pre;" direction="ltr">1.find servers group which serving bucket6，change bucket status to MigratingSrc </text><text x="0" y="93.6" font-family="Virgil, Segoe UI Emoji" font-size="20px" fill="#000000" text-anchor="start" style="white-space: pre;" direction="ltr">2.ask servers bucket6 status, if MigratingSrc, next step</text><text x="0" y="119" font-family="Virgil, Segoe UI Emoji" font-size="20px" fill="#000000" text-anchor="start" style="white-space: pre;" direction="ltr">3.change bucket6 MigratingSrc -&gt; Migrating, can't serving</text><text x="0" y="144.39999999999998" font-family="Virgil, Segoe UI Emoji" font-size="20px" fill="#000000" text-anchor="start" style="white-space: pre;" direction="ltr">4.get all data in bucket6</text><text x="0" y="169.79999999999998" font-family="Virgil, Segoe UI Emoji" font-size="20px" fill="#000000" text-anchor="start" style="white-space: pre;" direction="ltr">5.insert data to new server group2</text><text x="0" y="195.2" font-family="Virgil, Segoe UI Emoji" font-size="20px" fill="#000000" text-anchor="start" style="white-space: pre;" direction="ltr">6.change bucket6 status to running in new server group</text><text x="0" y="220.6" font-family="Virgil, Segoe UI Emoji" font-size="20px" fill="#000000" text-anchor="start" style="white-space: pre;" direction="ltr">7.delete bucket6 data in group1</text><text x="0" y="246" font-family="Virgil, Segoe UI Emoji" font-size="20px" fill="#000000" text-anchor="start" style="white-space: pre;" direction="ltr">8.remove bucket6 in configtable group1</text></g></svg>