<svg version="1.1" viewBox="0.0 0.0 960.0 720.0" fill="none" stroke="none" stroke-linecap="square" stroke-miterlimit="10" xmlns:xlink="http://www.w3.org/1999/xlink" xmlns="http://www.w3.org/2000/svg"><clipPath id="p.0"><path d="m0 0l960.0 0l0 720.0l-960.0 0l0 -720.0z" clip-rule="nonzero"/></clipPath><g clip-path="url(#p.0)"><path fill="#000000" fill-opacity="0.0" d="m0 0l960.0 0l0 720.0l-960.0 0z" fill-rule="evenodd"/><path fill="#ffffff" d="m166.39633 369.2183l0 0c0 -19.259186 29.120285 -34.871826 65.04199 -34.871826c35.92169 0 65.04199 15.61264 65.04199 34.871826l0 139.4873c0 19.259186 -29.1203 34.871857 -65.04199 34.871857c-35.921707 0 -65.04199 -15.612671 -65.04199 -34.871857z" fill-rule="evenodd"/><path fill="#000000" fill-opacity="0.0" d="m296.48032 369.2183l0 0c0 19.259186 -29.1203 34.871826 -65.04199 34.871826c-35.921707 0 -65.04199 -15.61264 -65.04199 -34.871826" fill-rule="evenodd"/><path fill="#000000" fill-opacity="0.0" d="m166.39633 369.2183l0 0c0 -19.259186 29.120285 -34.871826 65.04199 -34.871826c35.92169 0 65.04199 15.61264 65.04199 34.871826l0 139.4873c0 19.259186 -29.1203 34.871857 -65.04199 34.871857c-35.921707 0 -65.04199 -15.612671 -65.04199 -34.871857z" fill-rule="evenodd"/><path stroke="#000000" stroke-width="1.0" stroke-linejoin="round" stroke-linecap="butt" d="m296.48032 369.2183l0 0c0 19.259186 -29.1203 34.871826 -65.04199 34.871826c-35.921707 0 -65.04199 -15.61264 -65.04199 -34.871826" fill-rule="evenodd"/><path stroke="#000000" stroke-width="1.0" stroke-linejoin="round" stroke-linecap="butt" d="m166.39633 369.2183l0 0c0 -19.259186 29.120285 -34.871826 65.04199 -34.871826c35.92169 0 65.04199 15.61264 65.04199 34.871826l0 139.4873c0 19.259186 -29.1203 34.871857 -65.04199 34.871857c-35.921707 0 -65.04199 -15.612671 -65.04199 -34.871857z" fill-rule="evenodd"/><path fill="#000000" d="m219.78207 447.50534q0.0625 -1.59375 -0.5625 -2.4375q-0.609375 -0.84375 -1.625 -0.84375q-1.09375 0 -1.796875 0.875q-0.6875 0.875 -0.6875 2.40625l4.671875 0zm-4.671875 0.4375q0 1.96875 0.765625 2.8125q0.765625 0.828125 2.0 0.828125q0.953125 0 1.609375 -0.546875q0.65625 -0.546875 0.953125 -1.34375l0.359375 0.140625q-0.21875 0.8125 -0.984375 1.578125q-0.765625 0.765625 -2.078125 0.765625q-1.671875 0 -2.734375 -1.09375q-1.046875 -1.09375 -1.046875 -3.140625q0 -1.8125 1.046875 -3.015625q1.0625 -1.203125 2.59375 -1.203125q1.375 0 2.390625 0.953125q1.03125 0.9375 1.03125 3.265625l-5.90625 0zm13.703125 -2.46875q-0.359375 -0.59375 -0.953125 -0.84375q-0.578125 -0.25 -1.15625 -0.25q-1.09375 0 -1.71875 1.015625q-0.609375 1.015625 -0.609375 2.6875q0 1.75 0.578125 2.59375q0.578125 0.84375 1.671875 0.84375q0.796875 0 1.34375 -0.515625q0.546875 -0.515625 0.84375 -1.53125l0 -4.0zm-2.40625 6.625q-1.3125 0 -2.265625 -1.046875q-0.9375 -1.0625 -0.9375 -3.109375q0 -1.890625 1.015625 -3.015625q1.03125 -1.140625 2.40625 -1.140625q0.578125 0 1.203125 0.265625q0.625 0.25 0.984375 0.765625l0 -3.9375q0 -0.4375 -0.15625 -0.65625q-0.140625 -0.21875 -0.5 -0.21875l-0.578125 0l0 -0.4375l0.796875 0q0.359375 0 0.71875 -0.140625q0.375 -0.15625 0.734375 -0.453125l0 11.515625q0 0.375 0.140625 0.515625q0.15625 0.140625 0.453125 0.140625l0.5 0l0 0.4375l-0.4375 0q-0.28125 0 -0.6875 0.109375q-0.40625 0.109375 -0.84375 0.328125l-0.140625 0l0 -1.375q-0.359375 0.65625 -0.984375 1.0625q-0.625 0.390625 -1.421875 0.390625zm7.578125 -6.5625q0.375 -0.796875 1.171875 -1.265625q0.796875 -0.484375 1.53125 -0.484375q1.53125 0 2.296875 1.0625q0.765625 1.0625 0.765625 3.09375q0 2.046875 -0.984375 3.109375q-0.984375 1.046875 -2.453125 1.046875q-0.71875 0 -1.34375 -0.25q-0.609375 -0.265625 -1.046875 -0.703125l-0.65625 0.875l-0.296875 0l0 -11.4375q0 -0.296875 -0.15625 -0.4375q-0.140625 -0.140625 -0.5 -0.140625l-0.4375 0l0 -0.4375l0.65625 0q0.359375 0 0.71875 -0.140625q0.375 -0.15625 0.734375 -0.453125l0 6.5625zm0 4.078125q0 0.8125 0.546875 1.390625q0.546875 0.578125 1.640625 0.578125q1.3125 0 1.859375 -0.90625q0.546875 -0.90625 0.546875 -2.734375q0 -1.75 -0.484375 -2.65625q-0.46875 -0.90625 -1.484375 -0.90625q-0.875 0 -1.53125 0.515625q-0.65625 0.5 -1.09375 1.8125l0 2.90625zm11.453125 -9.609375q-1.03125 0 -1.71875 1.5625q-0.6875 1.5625 -0.6875 4.1875q0 2.765625 0.6875 4.296875q0.6875 1.53125 1.71875 1.53125q1.078125 0 1.703125 -1.53125q0.625 -1.53125 0.625 -4.296875q0 -2.625 -0.59375 -4.1875q-0.578125 -1.5625 -1.734375 -1.5625zm0 12.171875q-1.609375 0 -2.703125 -1.671875q-1.09375 -1.6875 -1.09375 -4.75q0 -2.84375 1.046875 -4.59375q1.0625 -1.75 2.75 -1.75q1.59375 0 2.640625 1.6875q1.0625 1.671875 1.0625 4.65625q0 2.984375 -1.0625 4.703125q-1.046875 1.71875 -2.640625 1.71875z" fill-rule="nonzero"/><path fill="#000000" d="m230.71176 473.58347l0 0.4375l-3.5 0l0 -0.4375l0.515625 0q0.359375 0 0.5 -0.140625q0.15625 -0.140625 0.15625 -0.4375l0 -10.421875q0 -0.296875 -0.15625 -0.4375q-0.140625 -0.140625 -0.5 -0.140625l-0.4375 0l0 -0.4375l7.578125 0l0.875 2.625l-0.375 0.140625q-0.578125 -1.171875 -1.390625 -1.75q-0.796875 -0.578125 -1.734375 -0.578125l-2.046875 0q-0.28125 0 -0.46875 0.140625q-0.1875 0.140625 -0.1875 0.4375l0 4.671875l2.40625 0q0.734375 0 1.0625 -0.328125q0.328125 -0.328125 0.328125 -1.0625l0 -0.359375l0.4375 0l0 4.21875l-0.4375 0l0 -0.28125q0 -0.875 -0.328125 -1.3125q-0.328125 -0.4375 -1.0625 -0.4375l-2.40625 0l0 5.3125q0 0.296875 0.1875 0.4375q0.1875 0.140625 0.46875 0.140625l0.515625 0z" fill-rule="nonzero"/><path fill="#ffffff" d="m397.18634 300.41687l0 0c0 -16.150818 29.1203 -29.243652 65.04199 -29.243652c35.921722 0 65.04199 13.092834 65.04199 29.243652l0 116.97464c0 16.150818 -29.12027 29.243652 -65.04199 29.243652c-35.92169 0 -65.04199 -13.092834 -65.04199 -29.243652z" fill-rule="evenodd"/><path fill="#000000" fill-opacity="0.0" d="m527.2703 300.41687l0 0c0 16.150848 -29.12027 29.243683 -65.04199 29.243683c-35.92169 0 -65.04199 -13.092834 -65.04199 -29.243683" fill-rule="evenodd"/><path fill="#000000" fill-opacity="0.0" d="m397.18634 300.41687l0 0c0 -16.150818 29.1203 -29.243652 65.04199 -29.243652c35.921722 0 65.04199 13.092834 65.04199 29.243652l0 116.97464c0 16.150818 -29.12027 29.243652 -65.04199 29.243652c-35.92169 0 -65.04199 -13.092834 -65.04199 -29.243652z" fill-rule="evenodd"/><path stroke="#000000" stroke-width="1.0" stroke-linejoin="round" stroke-linecap="butt" d="m527.2703 300.41687l0 0c0 16.150848 -29.12027 29.243683 -65.04199 29.243683c-35.92169 0 -65.04199 -13.092834 -65.04199 -29.243683" fill-rule="evenodd"/><path stroke="#000000" stroke-width="1.0" stroke-linejoin="round" stroke-linecap="butt" d="m397.18634 300.41687l0 0c0 -16.150818 29.1203 -29.243652 65.04199 -29.243652c35.921722 0 65.04199 13.092834 65.04199 29.243652l0 116.97464c0 16.150818 -29.12027 29.243652 -65.04199 29.243652c-35.92169 0 -65.04199 -13.092834 -65.04199 -29.243652z" fill-rule="evenodd"/><path fill="#000000" d="m450.57208 364.6335q0.0625 -1.59375 -0.5625 -2.4375q-0.609375 -0.84375 -1.625 -0.84375q-1.09375 0 -1.796875 0.875q-0.6875 0.875 -0.6875 2.40625l4.671875 0zm-4.671875 0.4375q0 1.96875 0.765625 2.8125q0.765625 0.828125 2.0 0.828125q0.953125 0 1.609375 -0.546875q0.65625 -0.546875 0.953125 -1.34375l0.359375 0.140625q-0.21875 0.8125 -0.984375 1.578125q-0.765625 0.765625 -2.078125 0.765625q-1.671875 0 -2.734375 -1.09375q-1.046875 -1.09375 -1.046875 -3.140625q0 -1.8125 1.046875 -3.015625q1.0625 -1.203125 2.59375 -1.203125q1.375 0 2.390625 0.953125q1.03125 0.9375 1.03125 3.265625l-5.90625 0zm13.703125 -2.46875q-0.359375 -0.59375 -0.953125 -0.84375q-0.578125 -0.25 -1.15625 -0.25q-1.09375 0 -1.71875 1.015625q-0.609375 1.015625 -0.609375 2.6875q0 1.75 0.578125 2.59375q0.578125 0.84375 1.671875 0.84375q0.796875 0 1.34375 -0.515625q0.546875 -0.515625 0.84375 -1.53125l0 -4.0zm-2.40625 6.625q-1.3125 0 -2.265625 -1.046875q-0.9375 -1.0625 -0.9375 -3.109375q0 -1.890625 1.015625 -3.015625q1.03125 -1.140625 2.40625 -1.140625q0.578125 0 1.203125 0.265625q0.625 0.25 0.984375 0.765625l0 -3.9375q0 -0.4375 -0.15625 -0.65625q-0.140625 -0.21875 -0.5 -0.21875l-0.578125 0l0 -0.4375l0.796875 0q0.359375 0 0.71875 -0.140625q0.375 -0.15625 0.734375 -0.453125l0 11.515625q0 0.375 0.140625 0.515625q0.15625 0.140625 0.453125 0.140625l0.5 0l0 0.4375l-0.4375 0q-0.28125 0 -0.6875 0.109375q-0.40625 0.109375 -0.84375 0.328125l-0.140625 0l0 -1.375q-0.359375 0.65625 -0.984375 1.0625q-0.625 0.390625 -1.421875 0.390625zm7.578125 -6.5625q0.375 -0.796875 1.171875 -1.265625q0.796875 -0.484375 1.53125 -0.484375q1.53125 0 2.296875 1.0625q0.765625 1.0625 0.765625 3.09375q0 2.046875 -0.984375 3.109375q-0.984375 1.046875 -2.453125 1.046875q-0.71875 0 -1.34375 -0.25q-0.609375 -0.265625 -1.046875 -0.703125l-0.65625 0.875l-0.296875 0l0 -11.4375q0 -0.296875 -0.15625 -0.4375q-0.140625 -0.140625 -0.5 -0.140625l-0.4375 0l0 -0.4375l0.65625 0q0.359375 0 0.71875 -0.140625q0.375 -0.15625 0.734375 -0.453125l0 6.5625zm0 4.078125q0 0.8125 0.546875 1.390625q0.546875 0.578125 1.640625 0.578125q1.3125 0 1.859375 -0.90625q0.546875 -0.90625 0.546875 -2.734375q0 -1.75 -0.484375 -2.65625q-0.46875 -0.90625 -1.484375 -0.90625q-0.875 0 -1.53125 0.515625q-0.65625 0.5 -1.09375 1.8125l0 2.90625zm11.453125 -9.609375q-1.03125 0 -1.71875 1.5625q-0.6875 1.5625 -0.6875 4.1875q0 2.765625 0.6875 4.296875q0.6875 1.53125 1.71875 1.53125q1.078125 0 1.703125 -1.53125q0.625 -1.53125 0.625 -4.296875q0 -2.625 -0.59375 -4.1875q-0.578125 -1.5625 -1.734375 -1.5625zm0 12.171875q-1.609375 0 -2.703125 -1.671875q-1.09375 -1.6875 -1.09375 -4.75q0 -2.84375 1.046875 -4.59375q1.0625 -1.75 2.75 -1.75q1.59375 0 2.640625 1.6875q1.0625 1.671875 1.0625 4.65625q0 2.984375 -1.0625 4.703125q-1.046875 1.71875 -2.640625 1.71875z" fill-rule="nonzero"/><path fill="#000000" d="m460.48615 390.1335q0 0.296875 0.171875 0.4375q0.1875 0.140625 0.484375 0.140625l1.953125 0q1.03125 0 1.75 -0.609375q0.734375 -0.625 1.09375 -1.9375l0.375 0.140625l-0.65625 2.84375l-7.515625 0l0 -0.4375l0.515625 0q0.359375 0 0.5 -0.140625q0.15625 -0.140625 0.15625 -0.4375l0 -10.421875q0 -0.296875 -0.15625 -0.4375q-0.140625 -0.140625 -0.5 -0.140625l-0.4375 0l0 -0.4375l3.421875 0l0 0.4375l-0.5 0q-0.296875 0 -0.484375 0.140625q-0.171875 0.140625 -0.171875 0.4375l0 10.421875z" fill-rule="nonzero"/><path fill="#ffffff" d="m627.9764 369.2183l0 0c0 -19.259186 29.1203 -34.871826 65.04199 -34.871826c35.92169 0 65.04199 15.61264 65.04199 34.871826l0 139.4873c0 19.259186 -29.1203 34.871857 -65.04199 34.871857c-35.92169 0 -65.04199 -15.612671 -65.04199 -34.871857z" fill-rule="evenodd"/><path fill="#000000" fill-opacity="0.0" d="m758.06036 369.2183l0 0c0 19.259186 -29.1203 34.871826 -65.04199 34.871826c-35.92169 0 -65.04199 -15.61264 -65.04199 -34.871826" fill-rule="evenodd"/><path fill="#000000" fill-opacity="0.0" d="m627.9764 369.2183l0 0c0 -19.259186 29.1203 -34.871826 65.04199 -34.871826c35.92169 0 65.04199 15.61264 65.04199 34.871826l0 139.4873c0 19.259186 -29.1203 34.871857 -65.04199 34.871857c-35.92169 0 -65.04199 -15.612671 -65.04199 -34.871857z" fill-rule="evenodd"/><path stroke="#000000" stroke-width="1.0" stroke-linejoin="round" stroke-linecap="butt" d="m758.06036 369.2183l0 0c0 19.259186 -29.1203 34.871826 -65.04199 34.871826c-35.92169 0 -65.04199 -15.61264 -65.04199 -34.871826" fill-rule="evenodd"/><path stroke="#000000" stroke-width="1.0" stroke-linejoin="round" stroke-linecap="butt" d="m627.9764 369.2183l0 0c0 -19.259186 29.1203 -34.871826 65.04199 -34.871826c35.92169 0 65.04199 15.61264 65.04199 34.871826l0 139.4873c0 19.259186 -29.1203 34.871857 -65.04199 34.871857c-35.92169 0 -65.04199 -15.612671 -65.04199 -34.871857z" fill-rule="evenodd"/><path fill="#000000" d="m681.3621 447.50534q0.0625 -1.59375 -0.5625 -2.4375q-0.609375 -0.84375 -1.625 -0.84375q-1.09375 0 -1.796875 0.875q-0.6875 0.875 -0.6875 2.40625l4.671875 0zm-4.671875 0.4375q0 1.96875 0.765625 2.8125q0.765625 0.828125 2.0 0.828125q0.953125 0 1.609375 -0.546875q0.65625 -0.546875 0.953125 -1.34375l0.359375 0.140625q-0.21875 0.8125 -0.984375 1.578125q-0.765625 0.765625 -2.078125 0.765625q-1.671875 0 -2.734375 -1.09375q-1.046875 -1.09375 -1.046875 -3.140625q0 -1.8125 1.046875 -3.015625q1.0625 -1.203125 2.59375 -1.203125q1.375 0 2.390625 0.953125q1.03125 0.9375 1.03125 3.265625l-5.90625 0zm13.703125 -2.46875q-0.359375 -0.59375 -0.953125 -0.84375q-0.578125 -0.25 -1.15625 -0.25q-1.09375 0 -1.71875 1.015625q-0.609375 1.015625 -0.609375 2.6875q0 1.75 0.578125 2.59375q0.578125 0.84375 1.671875 0.84375q0.796875 0 1.34375 -0.515625q0.546875 -0.515625 0.84375 -1.53125l0 -4.0zm-2.40625 6.625q-1.3125 0 -2.265625 -1.046875q-0.9375 -1.0625 -0.9375 -3.109375q0 -1.890625 1.015625 -3.015625q1.03125 -1.140625 2.40625 -1.140625q0.578125 0 1.203125 0.265625q0.625 0.25 0.984375 0.765625l0 -3.9375q0 -0.4375 -0.15625 -0.65625q-0.140625 -0.21875 -0.5 -0.21875l-0.578125 0l0 -0.4375l0.796875 0q0.359375 0 0.71875 -0.140625q0.375 -0.15625 0.734375 -0.453125l0 11.515625q0 0.375 0.140625 0.515625q0.15625 0.140625 0.453125 0.140625l0.5 0l0 0.4375l-0.4375 0q-0.28125 0 -0.6875 0.109375q-0.40625 0.109375 -0.84375 0.328125l-0.140625 0l0 -1.375q-0.359375 0.65625 -0.984375 1.0625q-0.625 0.390625 -1.421875 0.390625zm7.578125 -6.5625q0.375 -0.796875 1.171875 -1.265625q0.796875 -0.484375 1.53125 -0.484375q1.53125 0 2.296875 1.0625q0.765625 1.0625 0.765625 3.09375q0 2.046875 -0.984375 3.109375q-0.984375 1.046875 -2.453125 1.046875q-0.71875 0 -1.34375 -0.25q-0.609375 -0.265625 -1.046875 -0.703125l-0.65625 0.875l-0.296875 0l0 -11.4375q0 -0.296875 -0.15625 -0.4375q-0.140625 -0.140625 -0.5 -0.140625l-0.4375 0l0 -0.4375l0.65625 0q0.359375 0 0.71875 -0.140625q0.375 -0.15625 0.734375 -0.453125l0 6.5625zm0 4.078125q0 0.8125 0.546875 1.390625q0.546875 0.578125 1.640625 0.578125q1.3125 0 1.859375 -0.90625q0.546875 -0.90625 0.546875 -2.734375q0 -1.75 -0.484375 -2.65625q-0.46875 -0.90625 -1.484375 -0.90625q-0.875 0 -1.53125 0.515625q-0.65625 0.5 -1.09375 1.8125l0 2.90625zm11.453125 -9.609375q-1.03125 0 -1.71875 1.5625q-0.6875 1.5625 -0.6875 4.1875q0 2.765625 0.6875 4.296875q0.6875 1.53125 1.71875 1.53125q1.078125 0 1.703125 -1.53125q0.625 -1.53125 0.625 -4.296875q0 -2.625 -0.59375 -4.1875q-0.578125 -1.5625 -1.734375 -1.5625zm0 12.171875q-1.609375 0 -2.703125 -1.671875q-1.09375 -1.6875 -1.09375 -4.75q0 -2.84375 1.046875 -4.59375q1.0625 -1.75 2.75 -1.75q1.59375 0 2.640625 1.6875q1.0625 1.671875 1.0625 4.65625q0 2.984375 -1.0625 4.703125q-1.046875 1.71875 -2.640625 1.71875z" fill-rule="nonzero"/><path fill="#000000" d="m692.2918 473.58347l0 0.4375l-3.5 0l0 -0.4375l0.515625 0q0.359375 0 0.5 -0.140625q0.15625 -0.140625 0.15625 -0.4375l0 -10.421875q0 -0.296875 -0.15625 -0.4375q-0.140625 -0.140625 -0.5 -0.140625l-0.4375 0l0 -0.4375l7.578125 0l0.875 2.625l-0.375 0.140625q-0.578125 -1.171875 -1.390625 -1.75q-0.796875 -0.578125 -1.734375 -0.578125l-2.046875 0q-0.28125 0 -0.46875 0.140625q-0.1875 0.140625 -0.1875 0.4375l0 4.671875l2.40625 0q0.734375 0 1.0625 -0.328125q0.328125 -0.328125 0.328125 -1.0625l0 -0.359375l0.4375 0l0 4.21875l-0.4375 0l0 -0.28125q0 -0.875 -0.328125 -1.3125q-0.328125 -0.4375 -1.0625 -0.4375l-2.40625 0l0 5.3125q0 0.296875 0.1875 0.4375q0.1875 0.140625 0.46875 0.140625l0.515625 0z" fill-rule="nonzero"/><path fill="#ffffff" d="m555.6425 340.23715l45.386353 22.030487l2.8582764 -5.8897705l6.0625 17.49707l-17.495605 6.061981l2.8582764 -5.88974l-45.38629 -22.030487z" fill-rule="evenodd"/><path stroke="#000000" stroke-width="1.0" stroke-linejoin="round" stroke-linecap="butt" d="m555.6425 340.23715l45.386353 22.030487l2.8582764 -5.8897705l6.0625 17.49707l-17.495605 6.061981l2.8582764 -5.88974l-45.38629 -22.030487z" fill-rule="evenodd"/><path fill="#ffffff" d="m375.04953 360.72293l-47.104218 18.026611l2.3385925 6.118103l-16.91153 -7.5541687l7.55719 -16.918274l2.3385925 6.1181335l47.104218 -18.026642z" fill-rule="evenodd"/><path stroke="#000000" stroke-width="1.0" stroke-linejoin="round" stroke-linecap="butt" d="m375.04953 360.72293l-47.104218 18.026611l2.3385925 6.118103l-16.91153 -7.5541687l7.55719 -16.918274l2.3385925 6.1181335l47.104218 -18.026642z" fill-rule="evenodd"/><path fill="#ffffff" d="m330.76904 488.6299l13.62204 -13.62204l0 6.811035l246.04721 0l0 -6.811035l13.62207 13.62204l-13.62207 13.62207l0 -6.811035l-246.04721 0l0 6.811035z" fill-rule="evenodd"/><path stroke="#000000" stroke-width="1.0" stroke-linejoin="round" stroke-linecap="butt" d="m330.76904 488.6299l13.62204 -13.62204l0 6.811035l246.04721 0l0 -6.811035l13.62207 13.62204l-13.62207 13.62207l0 -6.811035l-246.04721 0l0 6.811035z" fill-rule="evenodd"/><path fill="#000000" fill-opacity="0.0" d="m433.06824 506.2861l68.69293 0l0 42.015717l-68.69293 0z" fill-rule="evenodd"/><path fill="#000000" d="m449.06824 528.3936q0.0625 -1.59375 -0.5625 -2.4375q-0.609375 -0.84375 -1.625 -0.84375q-1.09375 0 -1.796875 0.875q-0.6875 0.875 -0.6875 2.40625l4.671875 0zm-4.671875 0.4375q0 1.96875 0.765625 2.8125q0.765625 0.828125 2.0 0.828125q0.953125 0 1.609375 -0.546875q0.65625 -0.546875 0.953125 -1.34375l0.359375 0.140625q-0.21875 0.8125 -0.984375 1.578125q-0.765625 0.765625 -2.078125 0.765625q-1.671875 0 -2.734375 -1.09375q-1.046875 -1.09375 -1.046875 -3.140625q0 -1.8125 1.046875 -3.015625q1.0625 -1.203125 2.59375 -1.203125q1.375 0 2.390625 0.953125q1.03125 0.9375 1.03125 3.265625l-5.90625 0zm10.71875 -1.8125q0.734375 -1.171875 1.5625 -1.78125q0.84375 -0.625 1.71875 -0.625q0.71875 0 1.125 0.328125q0.40625 0.328125 0.40625 0.765625q0 0.359375 -0.1875 0.578125q-0.1875 0.21875 -0.546875 0.21875q-0.359375 0 -0.546875 -0.21875q-0.1875 -0.21875 -0.109375 -0.578125q0 -0.21875 -0.078125 -0.359375q-0.0625 -0.15625 -0.4375 -0.15625q-0.578125 0 -1.421875 0.734375q-0.828125 0.71875 -1.484375 2.03125l0 3.9375q0 0.296875 0.171875 0.4375q0.1875 0.140625 0.484375 0.140625l1.59375 0l0 0.4375l-5.390625 0l0 -0.4375l1.46875 0q0.359375 0 0.5 -0.140625q0.15625 -0.140625 0.15625 -0.4375l0 -6.046875q0 -0.296875 -0.15625 -0.46875q-0.140625 -0.1875 -0.5 -0.1875l-1.390625 0l0 -0.4375l0.578125 0q0.515625 0 1.203125 -0.109375q0.703125 -0.109375 1.0625 -0.25l0.21875 0l0 2.625zm9.1875 5.96875q-1.3125 0 -2.046875 -0.609375q-0.734375 -0.625 -0.734375 -1.4375q0 -1.3125 1.125 -2.140625q1.140625 -0.84375 4.484375 -1.203125l0 -0.875q0 -0.734375 -0.328125 -1.203125q-0.328125 -0.46875 -1.484375 -0.46875q-1.234375 0 -1.75 0.40625q-0.515625 0.390625 -0.359375 0.828125q0.140625 0.296875 -0.015625 0.59375q-0.140625 0.28125 -0.578125 0.28125q-0.28125 0 -0.46875 -0.171875q-0.1875 -0.1875 -0.1875 -0.5625q0 -0.65625 0.953125 -1.234375q0.953125 -0.578125 2.328125 -0.578125q1.453125 0 2.1875 0.546875q0.734375 0.546875 0.734375 1.5625l0 4.8125q0 0.578125 0.109375 0.6875q0.109375 0.109375 0.390625 0.109375q0.375 0 0.515625 -0.328125q0.140625 -0.328125 0.140625 -0.90625l0.375 0q0 1.015625 -0.375 1.421875q-0.359375 0.390625 -0.9375 0.390625q-0.515625 0 -0.8125 -0.21875q-0.28125 -0.21875 -0.4375 -0.71875q-0.71875 0.5 -1.34375 0.765625q-0.609375 0.25 -1.484375 0.25zm-1.53125 -2.265625q0 0.65625 0.390625 1.203125q0.40625 0.546875 1.28125 0.546875q0.65625 0 1.3125 -0.25q0.65625 -0.25 1.375 -0.765625l0 -3.421875q-2.46875 0.296875 -3.421875 0.984375q-0.9375 0.6875 -0.9375 1.703125zm10.5625 -7.203125q0 -1.53125 0.9375 -2.296875q0.953125 -0.765625 2.125 -0.765625q1.234375 0 1.84375 0.4375q0.625 0.4375 0.625 1.015625q0 0.296875 -0.140625 0.515625q-0.140625 0.21875 -0.578125 0.21875q-0.296875 0 -0.484375 -0.140625q-0.171875 -0.15625 -0.171875 -0.515625q0 -0.078125 0.03125 -0.21875q0.03125 -0.15625 0.03125 -0.21875q0 -0.296875 -0.21875 -0.46875q-0.21875 -0.1875 -1.015625 -0.1875q-0.875 0 -1.421875 0.546875q-0.546875 0.546875 -0.546875 1.859375l0 1.453125l3.0625 0l0 0.4375l-3.0625 0l0 6.703125q0 0.296875 0.1875 0.4375q0.1875 0.140625 0.46875 0.140625l1.75 0l0 0.4375l-5.3125 0l0 -0.4375l1.234375 0q0.359375 0 0.5 -0.140625q0.15625 -0.140625 0.15625 -0.4375l0 -6.703125l-2.265625 0l0 -0.4375l2.265625 0l0 -1.234375zm10.421875 7.0625q0 1.015625 0.359375 1.390625q0.359375 0.359375 1.09375 0.359375q0.734375 0 1.171875 -0.46875q0.4375 -0.484375 0.578125 -1.359375l0.359375 0.15625q-0.140625 1.015625 -0.765625 1.671875q-0.609375 0.65625 -1.640625 0.65625q-1.078125 0 -1.625 -0.65625q-0.546875 -0.65625 -0.546875 -2.046875l0 -5.09375l-2.1875 0l0 -0.4375l0.578125 0q0.875 0 1.421875 -0.546875q0.546875 -0.546875 0.6875 -1.71875l0.078125 -0.578125l0.4375 0l0 2.84375l2.90625 0l0 0.4375l-2.90625 0l0 5.390625z" fill-rule="nonzero"/><path fill="#ffffff" d="m379.53937 202.73753l165.37793 0l0 51.307083l-165.37793 0z" fill-rule="evenodd"/><path stroke="#000000" stroke-width="1.0" stroke-linejoin="round" stroke-linecap="butt" d="m379.53937 202.73753l165.37793 0l0 51.307083l-165.37793 0z" fill-rule="evenodd"/><path fill="#000000" d="m397.4471 226.85794q0.359375 0 0.71875 -0.0625q0.375 -0.078125 0.59375 -0.234375l0.140625 0l0 1.25q0.359375 -0.59375 0.796875 -0.84375q0.4375 -0.25 0.953125 -0.25q0.65625 0 1.015625 0.25q0.359375 0.25 0.4375 0.84375q0.359375 -0.59375 0.828125 -0.84375q0.484375 -0.25 1.0 -0.25q0.875 0 1.203125 0.515625q0.328125 0.5 0.328125 1.296875l0 5.546875q0 0.28125 0.140625 0.390625q0.140625 0.109375 0.4375 0.109375l0.140625 0l0 0.4375l-2.46875 0l0 -0.4375l0.140625 0q0.296875 0 0.4375 -0.109375q0.140625 -0.109375 0.140625 -0.390625l0 -5.46875q0 -0.796875 -0.1875 -1.046875q-0.171875 -0.265625 -0.53125 -0.265625q-0.515625 0 -0.921875 0.375q-0.390625 0.359375 -0.609375 1.015625l0 5.390625q0 0.28125 0.140625 0.390625q0.140625 0.109375 0.4375 0.109375l0.140625 0l0 0.4375l-2.46875 0l0 -0.4375l0.140625 0q0.296875 0 0.4375 -0.109375q0.15625 -0.109375 0.15625 -0.390625l0 -5.46875q0 -0.65625 -0.15625 -0.984375q-0.140625 -0.328125 -0.578125 -0.328125q-0.515625 0 -0.921875 0.375q-0.390625 0.359375 -0.609375 1.078125l0 5.328125q0 0.28125 0.140625 0.390625q0.15625 0.109375 0.4375 0.109375l0.15625 0l0 0.4375l-2.484375 0l0 -0.4375l0.140625 0q0.296875 0 0.4375 -0.109375q0.15625 -0.109375 0.15625 -0.390625l0 -6.34375q0 -0.21875 -0.078125 -0.328125q-0.078125 -0.109375 -0.296875 -0.109375l-0.28125 0l0 -0.4375l0.21875 0zm13.625 6.125l0.140625 0l1.609375 -4.890625q0.140625 -0.359375 -0.046875 -0.578125q-0.171875 -0.21875 -0.46875 -0.21875l-0.4375 0l0 -0.4375l3.0625 0l0 0.4375l-0.4375 0q-0.296875 0 -0.59375 0.21875q-0.28125 0.21875 -0.421875 0.578125l-2.484375 7.21875q-0.359375 1.09375 -0.90625 1.703125q-0.546875 0.625 -1.421875 0.625q-0.515625 0 -0.8125 -0.1875q-0.28125 -0.171875 -0.28125 -0.53125q0 -0.21875 0.171875 -0.4375q0.1875 -0.21875 0.5625 -0.21875q0.28125 0 0.578125 0.25q0.296875 0.25 0.4375 0.25q0.21875 0 0.359375 -0.078125q0.15625 -0.0625 0.21875 -0.28125q0.21875 -0.359375 0.4375 -0.90625q0.21875 -0.546875 0.375 -1.140625l-2.484375 -6.40625q-0.078125 -0.296875 -0.328125 -0.46875q-0.25 -0.1875 -0.546875 -0.1875l-0.296875 0l0 -0.4375l3.0625 0l0 0.4375l-0.28125 0q-0.296875 0 -0.453125 0.1875q-0.140625 0.171875 -0.0625 0.546875l1.75 4.953125zm6.34375 -4.015625q0 -1.09375 0.828125 -1.671875q0.84375 -0.578125 2.015625 -0.578125q0.640625 0 1.21875 0.1875q0.59375 0.171875 0.8125 0.171875q0.21875 0 0.359375 -0.0625q0.15625 -0.078125 0.375 -0.296875l0.28125 2.40625l-0.4375 0.0625q-0.28125 -0.9375 -0.984375 -1.484375q-0.6875 -0.546875 -1.5625 -0.546875q-0.9375 0 -1.484375 0.359375q-0.546875 0.359375 -0.546875 1.015625q0 0.59375 0.25 0.921875q0.25 0.328125 0.90625 0.46875q0.515625 0.21875 1.28125 0.46875q0.765625 0.25 1.421875 0.546875q0.578125 0.296875 0.96875 0.765625q0.40625 0.46875 0.40625 1.0625q0 1.09375 -0.765625 1.71875q-0.765625 0.609375 -2.21875 0.609375q-0.9375 0 -1.421875 -0.171875q-0.46875 -0.1875 -0.765625 -0.1875q-0.21875 0 -0.46875 0.109375q-0.25 0.109375 -0.546875 0.25l-0.21875 -2.703125l0.4375 -0.0625q0.21875 1.15625 0.9375 1.75q0.734375 0.578125 2.046875 0.578125q1.015625 0 1.5625 -0.359375q0.546875 -0.375 0.546875 -1.09375q0 -0.515625 -0.296875 -0.84375q-0.28125 -0.328125 -0.578125 -0.46875q-0.71875 -0.296875 -1.59375 -0.625q-0.875 -0.328125 -1.53125 -0.625q-0.65625 -0.28125 -0.953125 -0.71875q-0.28125 -0.4375 -0.28125 -0.953125zm14.125 -0.21875q-0.28125 -0.65625 -0.796875 -1.046875q-0.515625 -0.40625 -1.234375 -0.40625q-1.015625 0 -1.75 0.875q-0.734375 0.875 -0.734375 2.984375q0 1.828125 0.625 2.59375q0.625 0.765625 1.5625 0.765625q0.796875 0 1.421875 -0.359375q0.625 -0.375 0.90625 -1.25l0 -4.15625zm1.03125 7.875q0 0.359375 0.171875 0.5q0.1875 0.15625 0.484375 0.15625l0.4375 0l0 0.4375l-3.359375 0l0 -0.4375l0.578125 0q0.375 0 0.515625 -0.15625q0.140625 -0.140625 0.140625 -0.5l0 -2.703125q-0.4375 0.59375 -1.0625 0.890625q-0.609375 0.28125 -1.484375 0.28125q-1.234375 0 -2.1875 -1.046875q-0.9375 -1.0625 -0.9375 -3.109375q0 -1.96875 1.09375 -3.0625q1.09375 -1.09375 2.328125 -1.09375q0.796875 0 1.34375 0.296875q0.546875 0.296875 0.984375 0.734375l0.65625 -0.953125l0.296875 0l0 9.765625zm4.375 -14.0625q0.65625 0 1.234375 -0.140625q0.578125 -0.15625 1.09375 -0.453125l0.140625 0l0 12.03125q0 0.296875 0.171875 0.4375q0.1875 0.140625 0.484375 0.140625l1.671875 0l0 0.4375l-5.671875 0l0 -0.4375l1.671875 0q0.359375 0 0.5 -0.140625q0.15625 -0.140625 0.15625 -0.4375l0 -10.421875q0 -0.296875 -0.15625 -0.4375q-0.140625 -0.140625 -0.5 -0.140625l-1.609375 0l0 -0.4375l0.8125 0zm19.3125 14.71875l0.5 0l0 0.4375l-3.34375 0l0 -0.4375l0.4375 0q0.359375 0 0.5 -0.15625q0.15625 -0.140625 0.15625 -0.5l0 -8.59375q0 -0.296875 -0.15625 -0.46875q-0.140625 -0.1875 -0.5 -0.1875l-0.4375 0l0 -0.4375l0.65625 0q0.359375 0 0.6875 -0.078125q0.328125 -0.078125 0.625 -0.296875l0.140625 0l0 1.6875q0.515625 -0.734375 1.125 -1.09375q0.625 -0.375 1.34375 -0.375q1.46875 0 2.40625 0.984375q0.953125 0.984375 0.953125 3.09375q0 2.046875 -1.03125 3.140625q-1.015625 1.09375 -2.390625 1.09375q-0.796875 0 -1.34375 -0.25q-0.546875 -0.265625 -1.0625 -0.765625l0 2.546875q0 0.359375 0.21875 0.5q0.21875 0.15625 0.515625 0.15625zm-0.734375 -4.15625q0.359375 0.734375 0.90625 1.09375q0.546875 0.359375 1.28125 0.359375q1.015625 0 1.734375 -0.90625q0.734375 -0.90625 0.734375 -2.8125q0 -1.734375 -0.546875 -2.609375q-0.546875 -0.875 -1.640625 -0.875q-0.640625 0 -1.296875 0.40625q-0.65625 0.390625 -1.171875 1.265625l0 4.078125zm10.421875 -4.0q0.734375 -1.171875 1.5625 -1.78125q0.84375 -0.625 1.71875 -0.625q0.71875 0 1.125 0.328125q0.40625 0.328125 0.40625 0.765625q0 0.359375 -0.1875 0.578125q-0.1875 0.21875 -0.546875 0.21875q-0.359375 0 -0.546875 -0.21875q-0.1875 -0.21875 -0.109375 -0.578125q0 -0.21875 -0.078125 -0.359375q-0.0625 -0.15625 -0.4375 -0.15625q-0.578125 0 -1.421875 0.734375q-0.828125 0.71875 -1.484375 2.03125l0 3.9375q0 0.296875 0.171875 0.4375q0.1875 0.140625 0.484375 0.140625l1.59375 0l0 0.4375l-5.390625 0l0 -0.4375l1.46875 0q0.359375 0 0.5 -0.140625q0.15625 -0.140625 0.15625 -0.4375l0 -6.046875q0 -0.296875 -0.15625 -0.46875q-0.140625 -0.1875 -0.5 -0.1875l-1.390625 0l0 -0.4375l0.578125 0q0.515625 0 1.203125 -0.109375q0.703125 -0.109375 1.0625 -0.25l0.21875 0l0 2.625zm14.0625 1.8125q0 1.828125 -1.09375 3.03125q-1.09375 1.203125 -2.6875 1.203125q-1.6875 0 -2.75 -1.234375q-1.046875 -1.25 -1.046875 -3.0q0 -1.59375 1.046875 -2.90625q1.0625 -1.3125 2.75 -1.3125q1.734375 0 2.75 1.3125q1.03125 1.3125 1.03125 2.90625zm-6.40625 0.078125q0 1.890625 0.765625 2.8125q0.765625 0.90625 1.859375 0.90625q1.234375 0 1.921875 -0.984375q0.6875 -0.984375 0.6875 -2.734375q0 -1.890625 -0.765625 -2.875q-0.765625 -0.984375 -1.84375 -0.984375q-1.03125 0 -1.828125 0.984375q-0.796875 0.984375 -0.796875 2.875zm11.65625 1.671875q0 1.015625 0.359375 1.390625q0.359375 0.359375 1.09375 0.359375q0.734375 0 1.171875 -0.46875q0.4375 -0.484375 0.578125 -1.359375l0.359375 0.15625q-0.140625 1.015625 -0.765625 1.671875q-0.609375 0.65625 -1.640625 0.65625q-1.078125 0 -1.625 -0.65625q-0.546875 -0.65625 -0.546875 -2.046875l0 -5.09375l-2.1875 0l0 -0.4375l0.578125 0q0.875 0 1.421875 -0.546875q0.546875 -0.546875 0.6875 -1.71875l0.078125 -0.578125l0.4375 0l0 2.84375l2.90625 0l0 0.4375l-2.90625 0l0 5.390625zm13.40625 -1.75q0 1.828125 -1.09375 3.03125q-1.09375 1.203125 -2.6875 1.203125q-1.6875 0 -2.75 -1.234375q-1.046875 -1.25 -1.046875 -3.0q0 -1.59375 1.046875 -2.90625q1.0625 -1.3125 2.75 -1.3125q1.734375 0 2.75 1.3125q1.03125 1.3125 1.03125 2.90625zm-6.40625 0.078125q0 1.890625 0.765625 2.8125q0.765625 0.90625 1.859375 0.90625q1.234375 0 1.921875 -0.984375q0.6875 -0.984375 0.6875 -2.734375q0 -1.890625 -0.765625 -2.875q-0.765625 -0.984375 -1.84375 -0.984375q-1.03125 0 -1.828125 0.984375q-0.796875 0.984375 -0.796875 2.875zm13.546875 -2.1875q0 -0.21875 0.03125 -0.28125q0.046875 -0.078125 0.109375 -0.296875q0.078125 -0.296875 -0.296875 -0.6875q-0.359375 -0.40625 -1.234375 -0.40625q-1.078125 0 -1.84375 1.0625q-0.765625 1.046875 -0.765625 2.796875q0 1.59375 0.65625 2.578125q0.65625 0.984375 2.171875 0.984375q1.03125 0 1.71875 -0.65625q0.6875 -0.65625 0.984375 -1.53125l0.359375 0.15625q-0.28125 1.09375 -1.09375 1.859375q-0.796875 0.765625 -2.1875 0.765625q-1.734375 0 -2.765625 -1.09375q-1.015625 -1.09375 -1.015625 -3.140625q0 -1.8125 1.09375 -3.015625q1.09375 -1.203125 2.84375 -1.203125q1.234375 0 1.921875 0.65625q0.703125 0.65625 0.703125 1.3125q0 0.4375 -0.1875 0.625q-0.1875 0.171875 -0.546875 0.171875q-0.296875 0 -0.484375 -0.171875q-0.171875 -0.1875 -0.171875 -0.484375zm11.5155945 2.109375q0 1.828125 -1.09375 3.03125q-1.09375 1.203125 -2.6875 1.203125q-1.6874695 0 -2.7499695 -1.234375q-1.046875 -1.25 -1.046875 -3.0q0 -1.59375 1.046875 -2.90625q1.0625 -1.3125 2.7499695 -1.3125q1.734375 0 2.75 1.3125q1.03125 1.3125 1.03125 2.90625zm-6.4062195 0.078125q0 1.890625 0.765625 2.8125q0.7655945 0.90625 1.8593445 0.90625q1.234375 0 1.921875 -0.984375q0.6875 -0.984375 0.6875 -2.734375q0 -1.890625 -0.765625 -2.875q-0.765625 -0.984375 -1.84375 -0.984375q-1.03125 0 -1.8280945 0.984375q-0.796875 0.984375 -0.796875 2.875zm9.9843445 -8.453125q0.65625 0 1.234375 -0.140625q0.578125 -0.15625 1.09375 -0.453125l0.140625 0l0 12.03125q0 0.296875 0.171875 0.4375q0.1875 0.140625 0.484375 0.140625l1.671875 0l0 0.4375l-5.671875 0l0 -0.4375l1.671875 0q0.359375 0 0.5 -0.140625q0.15625 -0.140625 0.15625 -0.4375l0 -10.421875q0 -0.296875 -0.15625 -0.4375q-0.140625 -0.140625 -0.5 -0.140625l-1.609375 0l0 -0.4375l0.8125 0z" fill-rule="nonzero"/><path fill="#ffffff" d="m148.74803 265.12335l165.37794 0l0 51.3071l-165.37794 0z" fill-rule="evenodd"/><path stroke="#000000" stroke-width="1.0" stroke-linejoin="round" stroke-linecap="butt" d="m148.74803 265.12335l165.37794 0l0 51.3071l-165.37794 0z" fill-rule="evenodd"/><path fill="#000000" d="m166.65576 289.24377q0.359375 0 0.71875 -0.0625q0.375 -0.078125 0.59375 -0.234375l0.140625 0l0 1.25q0.359375 -0.59375 0.796875 -0.84375q0.4375 -0.25 0.953125 -0.25q0.65625 0 1.015625 0.25q0.359375 0.25 0.4375 0.84375q0.359375 -0.59375 0.828125 -0.84375q0.484375 -0.25 1.0 -0.25q0.875 0 1.203125 0.515625q0.328125 0.5 0.328125 1.296875l0 5.546875q0 0.28125 0.140625 0.390625q0.140625 0.109375 0.4375 0.109375l0.140625 0l0 0.4375l-2.46875 0l0 -0.4375l0.140625 0q0.296875 0 0.4375 -0.109375q0.140625 -0.109375 0.140625 -0.390625l0 -5.46875q0 -0.796875 -0.1875 -1.046875q-0.171875 -0.265625 -0.53125 -0.265625q-0.515625 0 -0.921875 0.375q-0.390625 0.359375 -0.609375 1.015625l0 5.390625q0 0.28125 0.140625 0.390625q0.140625 0.109375 0.4375 0.109375l0.140625 0l0 0.4375l-2.46875 0l0 -0.4375l0.140625 0q0.296875 0 0.4375 -0.109375q0.15625 -0.109375 0.15625 -0.390625l0 -5.46875q0 -0.65625 -0.15625 -0.984375q-0.140625 -0.328125 -0.578125 -0.328125q-0.515625 0 -0.921875 0.375q-0.390625 0.359375 -0.609375 1.078125l0 5.328125q0 0.28125 0.140625 0.390625q0.15625 0.109375 0.4375 0.109375l0.15625 0l0 0.4375l-2.484375 0l0 -0.4375l0.140625 0q0.296875 0 0.4375 -0.109375q0.15625 -0.109375 0.15625 -0.390625l0 -6.34375q0 -0.21875 -0.078125 -0.328125q-0.078125 -0.109375 -0.296875 -0.109375l-0.28125 0l0 -0.4375l0.21875 0zm13.625 6.125l0.140625 0l1.609375 -4.890625q0.140625 -0.359375 -0.046875 -0.578125q-0.171875 -0.21875 -0.46875 -0.21875l-0.4375 0l0 -0.4375l3.0625 0l0 0.4375l-0.4375 0q-0.296875 0 -0.59375 0.21875q-0.28125 0.21875 -0.421875 0.578125l-2.484375 7.21875q-0.359375 1.09375 -0.90625 1.703125q-0.546875 0.625 -1.421875 0.625q-0.515625 0 -0.8125 -0.1875q-0.28125 -0.171875 -0.28125 -0.53125q0 -0.21875 0.171875 -0.4375q0.1875 -0.21875 0.5625 -0.21875q0.28125 0 0.578125 0.25q0.296875 0.25 0.4375 0.25q0.21875 0 0.359375 -0.078125q0.15625 -0.0625 0.21875 -0.28125q0.21875 -0.359375 0.4375 -0.90625q0.21875 -0.546875 0.375 -1.140625l-2.484375 -6.40625q-0.078125 -0.296875 -0.328125 -0.46875q-0.25 -0.1875 -0.546875 -0.1875l-0.296875 0l0 -0.4375l3.0625 0l0 0.4375l-0.28125 0q-0.296875 0 -0.453125 0.1875q-0.140625 0.171875 -0.0625 0.546875l1.75 4.953125zm6.34375 -4.015625q0 -1.09375 0.828125 -1.671875q0.84375 -0.578125 2.015625 -0.578125q0.640625 0 1.21875 0.1875q0.59375 0.171875 0.8125 0.171875q0.21875 0 0.359375 -0.0625q0.15625 -0.078125 0.375 -0.296875l0.28125 2.40625l-0.4375 0.0625q-0.28125 -0.9375 -0.984375 -1.484375q-0.6875 -0.546875 -1.5625 -0.546875q-0.9375 0 -1.484375 0.359375q-0.546875 0.359375 -0.546875 1.015625q0 0.59375 0.25 0.921875q0.25 0.328125 0.90625 0.46875q0.515625 0.21875 1.28125 0.46875q0.765625 0.25 1.421875 0.546875q0.578125 0.296875 0.96875 0.765625q0.40625 0.46875 0.40625 1.0625q0 1.09375 -0.765625 1.71875q-0.765625 0.609375 -2.21875 0.609375q-0.9375 0 -1.421875 -0.171875q-0.46875 -0.1875 -0.765625 -0.1875q-0.21875 0 -0.46875 0.109375q-0.25 0.109375 -0.546875 0.25l-0.21875 -2.703125l0.4375 -0.0625q0.21875 1.15625 0.9375 1.75q0.734375 0.578125 2.046875 0.578125q1.015625 0 1.5625 -0.359375q0.546875 -0.375 0.546875 -1.09375q0 -0.515625 -0.296875 -0.84375q-0.28125 -0.328125 -0.578125 -0.46875q-0.71875 -0.296875 -1.59375 -0.625q-0.875 -0.328125 -1.53125 -0.625q-0.65625 -0.28125 -0.953125 -0.71875q-0.28125 -0.4375 -0.28125 -0.953125zm14.125 -0.21875q-0.28125 -0.65625 -0.796875 -1.046875q-0.515625 -0.40625 -1.234375 -0.40625q-1.015625 0 -1.75 0.875q-0.734375 0.875 -0.734375 2.984375q0 1.828125 0.625 2.59375q0.625 0.765625 1.5625 0.765625q0.796875 0 1.421875 -0.359375q0.625 -0.375 0.90625 -1.25l0 -4.15625zm1.03125 7.875q0 0.359375 0.171875 0.5q0.1875 0.15625 0.484375 0.15625l0.4375 0l0 0.4375l-3.359375 0l0 -0.4375l0.578125 0q0.375 0 0.515625 -0.15625q0.140625 -0.140625 0.140625 -0.5l0 -2.703125q-0.4375 0.59375 -1.0625 0.890625q-0.609375 0.28125 -1.484375 0.28125q-1.234375 0 -2.1875 -1.046875q-0.9375 -1.0625 -0.9375 -3.109375q0 -1.96875 1.09375 -3.0625q1.09375 -1.09375 2.328125 -1.09375q0.796875 0 1.34375 0.296875q0.546875 0.296875 0.984375 0.734375l0.65625 -0.953125l0.296875 0l0 9.765625zm4.375 -14.0625q0.65625 0 1.234375 -0.140625q0.578125 -0.15625 1.09375 -0.453125l0.140625 0l0 12.03125q0 0.296875 0.171875 0.4375q0.1875 0.140625 0.484375 0.140625l1.671875 0l0 0.4375l-5.671875 0l0 -0.4375l1.671875 0q0.359375 0 0.5 -0.140625q0.15625 -0.140625 0.15625 -0.4375l0 -10.421875q0 -0.296875 -0.15625 -0.4375q-0.140625 -0.140625 -0.5 -0.140625l-1.609375 0l0 -0.4375l0.8125 0zm19.3125 14.71875l0.5 0l0 0.4375l-3.34375 0l0 -0.4375l0.4375 0q0.359375 0 0.5 -0.15625q0.15625 -0.140625 0.15625 -0.5l0 -8.59375q0 -0.296875 -0.15625 -0.46875q-0.140625 -0.1875 -0.5 -0.1875l-0.4375 0l0 -0.4375l0.65625 0q0.359375 0 0.6875 -0.078125q0.328125 -0.078125 0.625 -0.296875l0.140625 0l0 1.6875q0.515625 -0.734375 1.125 -1.09375q0.625 -0.375 1.34375 -0.375q1.46875 0 2.40625 0.984375q0.953125 0.984375 0.953125 3.09375q0 2.046875 -1.03125 3.140625q-1.015625 1.09375 -2.390625 1.09375q-0.796875 0 -1.34375 -0.25q-0.546875 -0.265625 -1.0625 -0.765625l0 2.546875q0 0.359375 0.21875 0.5q0.21875 0.15625 0.515625 0.15625zm-0.734375 -4.15625q0.359375 0.734375 0.90625 1.09375q0.546875 0.359375 1.28125 0.359375q1.015625 0 1.734375 -0.90625q0.734375 -0.90625 0.734375 -2.8125q0 -1.734375 -0.546875 -2.609375q-0.546875 -0.875 -1.640625 -0.875q-0.640625 0 -1.296875 0.40625q-0.65625 0.390625 -1.171875 1.265625l0 4.078125zm10.421875 -4.0q0.734375 -1.171875 1.5625 -1.78125q0.84375 -0.625 1.71875 -0.625q0.71875 0 1.125 0.328125q0.40625 0.328125 0.40625 0.765625q0 0.359375 -0.1875 0.578125q-0.1875 0.21875 -0.546875 0.21875q-0.359375 0 -0.546875 -0.21875q-0.1875 -0.21875 -0.109375 -0.578125q0 -0.21875 -0.078125 -0.359375q-0.0625 -0.15625 -0.4375 -0.15625q-0.578125 0 -1.421875 0.734375q-0.828125 0.71875 -1.484375 2.03125l0 3.9375q0 0.296875 0.171875 0.4375q0.1875 0.140625 0.484375 0.140625l1.59375 0l0 0.4375l-5.390625 0l0 -0.4375l1.46875 0q0.359375 0 0.5 -0.140625q0.15625 -0.140625 0.15625 -0.4375l0 -6.046875q0 -0.296875 -0.15625 -0.46875q-0.140625 -0.1875 -0.5 -0.1875l-1.390625 0l0 -0.4375l0.578125 0q0.515625 0 1.203125 -0.109375q0.703125 -0.109375 1.0625 -0.25l0.21875 0l0 2.625zm14.0625 1.8125q0 1.828125 -1.09375 3.03125q-1.09375 1.203125 -2.6875 1.203125q-1.6875 0 -2.75 -1.234375q-1.046875 -1.25 -1.046875 -3.0q0 -1.59375 1.046875 -2.90625q1.0625 -1.3125 2.75 -1.3125q1.734375 0 2.75 1.3125q1.03125 1.3125 1.03125 2.90625zm-6.40625 0.078125q0 1.890625 0.765625 2.8125q0.765625 0.90625 1.859375 0.90625q1.234375 0 1.921875 -0.984375q0.6875 -0.984375 0.6875 -2.734375q0 -1.890625 -0.765625 -2.875q-0.765625 -0.984375 -1.84375 -0.984375q-1.03125 0 -1.828125 0.984375q-0.796875 0.984375 -0.796875 2.875zm11.65625 1.671875q0 1.015625 0.359375 1.390625q0.359375 0.359375 1.09375 0.359375q0.734375 0 1.171875 -0.46875q0.4375 -0.484375 0.578125 -1.359375l0.359375 0.15625q-0.140625 1.015625 -0.765625 1.671875q-0.609375 0.65625 -1.640625 0.65625q-1.078125 0 -1.625 -0.65625q-0.546875 -0.65625 -0.546875 -2.046875l0 -5.09375l-2.1875 0l0 -0.4375l0.578125 0q0.875 0 1.421875 -0.546875q0.546875 -0.546875 0.6875 -1.71875l0.078125 -0.578125l0.4375 0l0 2.84375l2.90625 0l0 0.4375l-2.90625 0l0 5.390625zm13.40625 -1.75q0 1.828125 -1.09375 3.03125q-1.09375 1.203125 -2.6875 1.203125q-1.6875 0 -2.75 -1.234375q-1.046875 -1.25 -1.046875 -3.0q0 -1.59375 1.046875 -2.90625q1.0625 -1.3125 2.75 -1.3125q1.734375 0 2.75 1.3125q1.03125 1.3125 1.03125 2.90625zm-6.40625 0.078125q0 1.890625 0.765625 2.8125q0.765625 0.90625 1.859375 0.90625q1.234375 0 1.921875 -0.984375q0.6875 -0.984375 0.6875 -2.734375q0 -1.890625 -0.765625 -2.875q-0.765625 -0.984375 -1.84375 -0.984375q-1.03125 0 -1.828125 0.984375q-0.796875 0.984375 -0.796875 2.875zm13.546875 -2.1875q0 -0.21875 0.03125 -0.28125q0.046875 -0.078125 0.109375 -0.296875q0.078125 -0.296875 -0.296875 -0.6875q-0.359375 -0.40625 -1.234375 -0.40625q-1.078125 0 -1.84375 1.0625q-0.765625 1.046875 -0.765625 2.796875q0 1.59375 0.65625 2.578125q0.65625 0.984375 2.171875 0.984375q1.03125 0 1.71875 -0.65625q0.6875 -0.65625 0.984375 -1.53125l0.359375 0.15625q-0.28125 1.09375 -1.09375 1.859375q-0.796875 0.765625 -2.1875 0.765625q-1.734375 0 -2.765625 -1.09375q-1.015625 -1.09375 -1.015625 -3.140625q0 -1.8125 1.09375 -3.015625q1.09375 -1.203125 2.84375 -1.203125q1.234375 0 1.921875 0.65625q0.703125 0.65625 0.703125 1.3125q0 0.4375 -0.1875 0.625q-0.1875 0.171875 -0.546875 0.171875q-0.296875 0 -0.484375 -0.171875q-0.171875 -0.1875 -0.171875 -0.484375zm11.515625 2.109375q0 1.828125 -1.09375 3.03125q-1.09375 1.203125 -2.6875 1.203125q-1.6875 0 -2.75 -1.234375q-1.046875 -1.25 -1.046875 -3.0q0 -1.59375 1.046875 -2.90625q1.0625 -1.3125 2.75 -1.3125q1.734375 0 2.75 1.3125q1.03125 1.3125 1.03125 2.90625zm-6.40625 0.078125q0 1.890625 0.765625 2.8125q0.765625 0.90625 1.859375 0.90625q1.234375 0 1.921875 -0.984375q0.6875 -0.984375 0.6875 -2.734375q0 -1.890625 -0.765625 -2.875q-0.765625 -0.984375 -1.84375 -0.984375q-1.03125 0 -1.828125 0.984375q-0.796875 0.984375 -0.796875 2.875zm9.984375 -8.453125q0.65625 0 1.234375 -0.140625q0.578125 -0.15625 1.09375 -0.453125l0.140625 0l0 12.03125q0 0.296875 0.171875 0.4375q0.1875 0.140625 0.484375 0.140625l1.671875 0l0 0.4375l-5.671875 0l0 -0.4375l1.671875 0q0.359375 0 0.5 -0.140625q0.15625 -0.140625 0.15625 -0.4375l0 -10.421875q0 -0.296875 -0.15625 -0.4375q-0.140625 -0.140625 -0.5 -0.140625l-1.609375 0l0 -0.4375l0.8125 0z" fill-rule="nonzero"/><path fill="#ffffff" d="m610.3294 265.12335l165.37793 0l0 51.3071l-165.37793 0z" fill-rule="evenodd"/><path stroke="#000000" stroke-width="1.0" stroke-linejoin="round" stroke-linecap="butt" d="m610.3294 265.12335l165.37793 0l0 51.3071l-165.37793 0z" fill-rule="evenodd"/><path fill="#000000" d="m628.2371 289.24377q0.359375 0 0.71875 -0.0625q0.375 -0.078125 0.59375 -0.234375l0.140625 0l0 1.25q0.359375 -0.59375 0.796875 -0.84375q0.4375 -0.25 0.953125 -0.25q0.65625 0 1.015625 0.25q0.359375 0.25 0.4375 0.84375q0.359375 -0.59375 0.828125 -0.84375q0.484375 -0.25 1.0 -0.25q0.875 0 1.203125 0.515625q0.328125 0.5 0.328125 1.296875l0 5.546875q0 0.28125 0.140625 0.390625q0.140625 0.109375 0.4375 0.109375l0.140625 0l0 0.4375l-2.46875 0l0 -0.4375l0.140625 0q0.296875 0 0.4375 -0.109375q0.140625 -0.109375 0.140625 -0.390625l0 -5.46875q0 -0.796875 -0.1875 -1.046875q-0.171875 -0.265625 -0.53125 -0.265625q-0.515625 0 -0.921875 0.375q-0.390625 0.359375 -0.609375 1.015625l0 5.390625q0 0.28125 0.140625 0.390625q0.140625 0.109375 0.4375 0.109375l0.140625 0l0 0.4375l-2.46875 0l0 -0.4375l0.140625 0q0.296875 0 0.4375 -0.109375q0.15625 -0.109375 0.15625 -0.390625l0 -5.46875q0 -0.65625 -0.15625 -0.984375q-0.140625 -0.328125 -0.578125 -0.328125q-0.515625 0 -0.921875 0.375q-0.390625 0.359375 -0.609375 1.078125l0 5.328125q0 0.28125 0.140625 0.390625q0.15625 0.109375 0.4375 0.109375l0.15625 0l0 0.4375l-2.484375 0l0 -0.4375l0.140625 0q0.296875 0 0.4375 -0.109375q0.15625 -0.109375 0.15625 -0.390625l0 -6.34375q0 -0.21875 -0.078125 -0.328125q-0.078125 -0.109375 -0.296875 -0.109375l-0.28125 0l0 -0.4375l0.21875 0zm13.625 6.125l0.140625 0l1.609375 -4.890625q0.140625 -0.359375 -0.046875 -0.578125q-0.171875 -0.21875 -0.46875 -0.21875l-0.4375 0l0 -0.4375l3.0625 0l0 0.4375l-0.4375 0q-0.296875 0 -0.59375 0.21875q-0.28125 0.21875 -0.421875 0.578125l-2.484375 7.21875q-0.359375 1.09375 -0.90625 1.703125q-0.546875 0.625 -1.421875 0.625q-0.515625 0 -0.8125 -0.1875q-0.28125 -0.171875 -0.28125 -0.53125q0 -0.21875 0.171875 -0.4375q0.1875 -0.21875 0.5625 -0.21875q0.28125 0 0.578125 0.25q0.296875 0.25 0.4375 0.25q0.21875 0 0.359375 -0.078125q0.15625 -0.0625 0.21875 -0.28125q0.21875 -0.359375 0.4375 -0.90625q0.21875 -0.546875 0.375 -1.140625l-2.484375 -6.40625q-0.078125 -0.296875 -0.328125 -0.46875q-0.25 -0.1875 -0.546875 -0.1875l-0.296875 0l0 -0.4375l3.0625 0l0 0.4375l-0.28125 0q-0.296875 0 -0.453125 0.1875q-0.140625 0.171875 -0.0625 0.546875l1.75 4.953125zm6.34375 -4.015625q0 -1.09375 0.828125 -1.671875q0.84375 -0.578125 2.015625 -0.578125q0.640625 0 1.21875 0.1875q0.59375 0.171875 0.8125 0.171875q0.21875 0 0.359375 -0.0625q0.15625 -0.078125 0.375 -0.296875l0.28125 2.40625l-0.4375 0.0625q-0.28125 -0.9375 -0.984375 -1.484375q-0.6875 -0.546875 -1.5625 -0.546875q-0.9375 0 -1.484375 0.359375q-0.546875 0.359375 -0.546875 1.015625q0 0.59375 0.25 0.921875q0.25 0.328125 0.90625 0.46875q0.515625 0.21875 1.28125 0.46875q0.765625 0.25 1.421875 0.546875q0.578125 0.296875 0.96875 0.765625q0.40625 0.46875 0.40625 1.0625q0 1.09375 -0.765625 1.71875q-0.765625 0.609375 -2.21875 0.609375q-0.9375 0 -1.421875 -0.171875q-0.46875 -0.1875 -0.765625 -0.1875q-0.21875 0 -0.46875 0.109375q-0.25 0.109375 -0.546875 0.25l-0.21875 -2.703125l0.4375 -0.0625q0.21875 1.15625 0.9375 1.75q0.734375 0.578125 2.046875 0.578125q1.015625 0 1.5625 -0.359375q0.546875 -0.375 0.546875 -1.09375q0 -0.515625 -0.296875 -0.84375q-0.28125 -0.328125 -0.578125 -0.46875q-0.71875 -0.296875 -1.59375 -0.625q-0.875 -0.328125 -1.53125 -0.625q-0.65625 -0.28125 -0.953125 -0.71875q-0.28125 -0.4375 -0.28125 -0.953125zm14.125 -0.21875q-0.28125 -0.65625 -0.796875 -1.046875q-0.515625 -0.40625 -1.234375 -0.40625q-1.015625 0 -1.75 0.875q-0.734375 0.875 -0.734375 2.984375q0 1.828125 0.625 2.59375q0.625 0.765625 1.5625 0.765625q0.796875 0 1.421875 -0.359375q0.625 -0.375 0.90625 -1.25l0 -4.15625zm1.03125 7.875q0 0.359375 0.171875 0.5q0.1875 0.15625 0.484375 0.15625l0.4375 0l0 0.4375l-3.359375 0l0 -0.4375l0.578125 0q0.375 0 0.515625 -0.15625q0.140625 -0.140625 0.140625 -0.5l0 -2.703125q-0.4375 0.59375 -1.0625 0.890625q-0.609375 0.28125 -1.484375 0.28125q-1.234375 0 -2.1875 -1.046875q-0.9375 -1.0625 -0.9375 -3.109375q0 -1.96875 1.09375 -3.0625q1.09375 -1.09375 2.328125 -1.09375q0.796875 0 1.34375 0.296875q0.546875 0.296875 0.984375 0.734375l0.65625 -0.953125l0.296875 0l0 9.765625zm4.375 -14.0625q0.65625 0 1.234375 -0.140625q0.578125 -0.15625 1.09375 -0.453125l0.140625 0l0 12.03125q0 0.296875 0.171875 0.4375q0.1875 0.140625 0.484375 0.140625l1.671875 0l0 0.4375l-5.671875 0l0 -0.4375l1.671875 0q0.359375 0 0.5 -0.140625q0.15625 -0.140625 0.15625 -0.4375l0 -10.421875q0 -0.296875 -0.15625 -0.4375q-0.140625 -0.140625 -0.5 -0.140625l-1.609375 0l0 -0.4375l0.8125 0zm19.3125 14.71875l0.5 0l0 0.4375l-3.34375 0l0 -0.4375l0.4375 0q0.359375 0 0.5 -0.15625q0.15625 -0.140625 0.15625 -0.5l0 -8.59375q0 -0.296875 -0.15625 -0.46875q-0.140625 -0.1875 -0.5 -0.1875l-0.4375 0l0 -0.4375l0.65625 0q0.359375 0 0.6875 -0.078125q0.328125 -0.078125 0.625 -0.296875l0.140625 0l0 1.6875q0.515625 -0.734375 1.125 -1.09375q0.625 -0.375 1.34375 -0.375q1.46875 0 2.40625 0.984375q0.953125 0.984375 0.953125 3.09375q0 2.046875 -1.03125 3.140625q-1.015625 1.09375 -2.390625 1.09375q-0.796875 0 -1.34375 -0.25q-0.546875 -0.265625 -1.0625 -0.765625l0 2.546875q0 0.359375 0.21875 0.5q0.21875 0.15625 0.515625 0.15625zm-0.734375 -4.15625q0.359375 0.734375 0.90625 1.09375q0.546875 0.359375 1.28125 0.359375q1.015625 0 1.734375 -0.90625q0.734375 -0.90625 0.734375 -2.8125q0 -1.734375 -0.546875 -2.609375q-0.546875 -0.875 -1.640625 -0.875q-0.640625 0 -1.296875 0.40625q-0.65625 0.390625 -1.171875 1.265625l0 4.078125zm10.421875 -4.0q0.734375 -1.171875 1.5625 -1.78125q0.84375 -0.625 1.71875 -0.625q0.71875 0 1.125 0.328125q0.40625 0.328125 0.40625 0.765625q0 0.359375 -0.1875 0.578125q-0.1875 0.21875 -0.546875 0.21875q-0.359375 0 -0.546875 -0.21875q-0.1875 -0.21875 -0.109375 -0.578125q0 -0.21875 -0.078125 -0.359375q-0.0625 -0.15625 -0.4375 -0.15625q-0.578125 0 -1.421875 0.734375q-0.828125 0.71875 -1.484375 2.03125l0 3.9375q0 0.296875 0.171875 0.4375q0.1875 0.140625 0.484375 0.140625l1.59375 0l0 0.4375l-5.390625 0l0 -0.4375l1.46875 0q0.359375 0 0.5 -0.140625q0.15625 -0.140625 0.15625 -0.4375l0 -6.046875q0 -0.296875 -0.15625 -0.46875q-0.140625 -0.1875 -0.5 -0.1875l-1.390625 0l0 -0.4375l0.578125 0q0.515625 0 1.203125 -0.109375q0.703125 -0.109375 1.0625 -0.25l0.21875 0l0 2.625zm14.0625 1.8125q0 1.828125 -1.09375 3.03125q-1.09375 1.203125 -2.6875 1.203125q-1.6875 0 -2.75 -1.234375q-1.046875 -1.25 -1.046875 -3.0q0 -1.59375 1.046875 -2.90625q1.0625 -1.3125 2.75 -1.3125q1.734375 0 2.75 1.3125q1.03125 1.3125 1.03125 2.90625zm-6.40625 0.078125q0 1.890625 0.765625 2.8125q0.765625 0.90625 1.859375 0.90625q1.234375 0 1.921875 -0.984375q0.6875 -0.984375 0.6875 -2.734375q0 -1.890625 -0.765625 -2.875q-0.765625 -0.984375 -1.84375 -0.984375q-1.03125 0 -1.828125 0.984375q-0.796875 0.984375 -0.796875 2.875zm11.65625 1.671875q0 1.015625 0.359375 1.390625q0.359375 0.359375 1.09375 0.359375q0.734375 0 1.171875 -0.46875q0.4375 -0.484375 0.578125 -1.359375l0.359375 0.15625q-0.140625 1.015625 -0.765625 1.671875q-0.609375 0.65625 -1.640625 0.65625q-1.078125 0 -1.625 -0.65625q-0.546875 -0.65625 -0.546875 -2.046875l0 -5.09375l-2.1875 0l0 -0.4375l0.578125 0q0.875 0 1.421875 -0.546875q0.546875 -0.546875 0.6875 -1.71875l0.078125 -0.578125l0.4375 0l0 2.84375l2.90625 0l0 0.4375l-2.90625 0l0 5.390625zm13.40625 -1.75q0 1.828125 -1.09375 3.03125q-1.09375 1.203125 -2.6875 1.203125q-1.6875 0 -2.75 -1.234375q-1.046875 -1.25 -1.046875 -3.0q0 -1.59375 1.046875 -2.90625q1.0625 -1.3125 2.75 -1.3125q1.734375 0 2.75 1.3125q1.03125 1.3125 1.03125 2.90625zm-6.40625 0.078125q0 1.890625 0.765625 2.8125q0.765625 0.90625 1.859375 0.90625q1.234375 0 1.921875 -0.984375q0.6875 -0.984375 0.6875 -2.734375q0 -1.890625 -0.765625 -2.875q-0.765625 -0.984375 -1.84375 -0.984375q-1.03125 0 -1.828125 0.984375q-0.796875 0.984375 -0.796875 2.875zm13.546875 -2.1875q0 -0.21875 0.03125 -0.28125q0.046875 -0.078125 0.109375 -0.296875q0.078125 -0.296875 -0.296875 -0.6875q-0.359375 -0.40625 -1.234375 -0.40625q-1.078125 0 -1.84375 1.0625q-0.765625 1.046875 -0.765625 2.796875q0 1.59375 0.65625 2.578125q0.65625 0.984375 2.171875 0.984375q1.03125 0 1.71875 -0.65625q0.6875 -0.65625 0.984375 -1.53125l0.359375 0.15625q-0.28125 1.09375 -1.09375 1.859375q-0.796875 0.765625 -2.1875 0.765625q-1.734375 0 -2.765625 -1.09375q-1.015625 -1.09375 -1.015625 -3.140625q0 -1.8125 1.09375 -3.015625q1.09375 -1.203125 2.84375 -1.203125q1.234375 0 1.921875 0.65625q0.703125 0.65625 0.703125 1.3125q0 0.4375 -0.1875 0.625q-0.1875 0.171875 -0.546875 0.171875q-0.296875 0 -0.484375 -0.171875q-0.171875 -0.1875 -0.171875 -0.484375zm11.515625 2.109375q0 1.828125 -1.09375 3.03125q-1.09375 1.203125 -2.6875 1.203125q-1.6875 0 -2.75 -1.234375q-1.046875 -1.25 -1.046875 -3.0q0 -1.59375 1.046875 -2.90625q1.0625 -1.3125 2.75 -1.3125q1.734375 0 2.75 1.3125q1.03125 1.3125 1.03125 2.90625zm-6.40625 0.078125q0 1.890625 0.765625 2.8125q0.765625 0.90625 1.859375 0.90625q1.234375 0 1.921875 -0.984375q0.6875 -0.984375 0.6875 -2.734375q0 -1.890625 -0.765625 -2.875q-0.765625 -0.984375 -1.84375 -0.984375q-1.03125 0 -1.828125 0.984375q-0.796875 0.984375 -0.796875 2.875zm9.984375 -8.453125q0.65625 0 1.234375 -0.140625q0.578125 -0.15625 1.09375 -0.453125l0.140625 0l0 12.03125q0 0.296875 0.171875 0.4375q0.1875 0.140625 0.484375 0.140625l1.671875 0l0 0.4375l-5.671875 0l0 -0.4375l1.671875 0q0.359375 0 0.5 -0.140625q0.15625 -0.140625 0.15625 -0.4375l0 -10.421875q0 -0.296875 -0.15625 -0.4375q-0.140625 -0.140625 -0.5 -0.140625l-1.609375 0l0 -0.4375l0.8125 0z" fill-rule="nonzero"/><path fill="#ffffff" d="m149.50525 90.28101l0 0c0 -4.722786 3.8285675 -8.551353 8.551346 -8.551353l608.3461 0c2.2679443 0 4.443054 0.90093994 6.046753 2.504631c1.6036377 1.6036911 2.5045776 3.7787628 2.5045776 6.0467224l0 34.204376c0 4.722786 -3.8285522 8.551353 -8.551331 8.551353l-608.3461 0c-4.7227783 0 -8.551346 -3.8285675 -8.551346 -8.551353z" fill-rule="evenodd"/><path stroke="#000000" stroke-width="1.0" stroke-linejoin="round" stroke-linecap="butt" d="m149.50525 90.28101l0 0c0 -4.722786 3.8285675 -8.551353 8.551346 -8.551353l608.3461 0c2.2679443 0 4.443054 0.90093994 6.046753 2.504631c1.6036377 1.6036911 2.5045776 3.7787628 2.5045776 6.0467224l0 34.204376c0 4.722786 -3.8285522 8.551353 -8.551331 8.551353l-608.3461 0c-4.7227783 0 -8.551346 -3.8285675 -8.551346 -8.551353z" fill-rule="evenodd"/><path fill="#000000" d="m429.15155 113.350075q0.859375 0 1.484375 -0.4375q0.625 -0.4375 0.90625 -1.375l0 -4.59375q0 -0.296875 -0.140625 -0.46875q-0.140625 -0.1875 -0.515625 -0.1875l-0.4375 0l0 -0.4375l0.4375 0q0.4375 0 0.796875 -0.0625q0.375 -0.078125 0.734375 -0.375l0.15625 0l0 7.140625q0 0.296875 0.171875 0.4375q0.1875 0.140625 0.484375 0.140625l0.4375 0l0 0.4375l-0.4375 0q-0.375 0 -0.734375 0.109375q-0.359375 0.109375 -0.796875 0.328125l-0.15625 0l0 -1.53125q-0.359375 0.8125 -1.09375 1.21875q-0.71875 0.390625 -1.671875 0.390625q-1.15625 0 -1.75 -0.65625q-0.578125 -0.65625 -0.578125 -2.109375l0 -4.375q0 -0.296875 -0.15625 -0.46875q-0.140625 -0.1875 -0.5 -0.1875l-0.4375 0l0 -0.4375l0.4375 0q0.4375 0 0.796875 -0.0625q0.375 -0.078125 0.734375 -0.375l0.140625 0l0 6.046875q0 1.015625 0.4375 1.453125q0.4375 0.4375 1.25 0.4375zm6.921875 -5.390625q0 -1.09375 0.828125 -1.671875q0.84375 -0.578125 2.015625 -0.578125q0.640625 0 1.21875 0.1875q0.59375 0.171875 0.8125 0.171875q0.21875 0 0.359375 -0.0625q0.15625 -0.078125 0.375 -0.296875l0.28125 2.40625l-0.4375 0.0625q-0.28125 -0.9375 -0.984375 -1.484375q-0.6875 -0.546875 -1.5625 -0.546875q-0.9375 0 -1.484375 0.359375q-0.546875 0.359375 -0.546875 1.015625q0 0.59375 0.25 0.921875q0.25 0.328125 0.90625 0.46875q0.515625 0.21875 1.28125 0.46875q0.765625 0.25 1.421875 0.546875q0.578125 0.296875 0.96875 0.765625q0.40625 0.46875 0.40625 1.0625q0 1.09375 -0.765625 1.71875q-0.765625 0.609375 -2.21875 0.609375q-0.9375 0 -1.421875 -0.171875q-0.46875 -0.1875 -0.765625 -0.1875q-0.21875 0 -0.46875 0.109375q-0.25 0.109375 -0.546875 0.25l-0.21875 -2.703125l0.4375 -0.0625q0.21875 1.15625 0.9375 1.75q0.734375 0.578125 2.046875 0.578125q1.015625 0 1.5625 -0.359375q0.546875 -0.375 0.546875 -1.09375q0 -0.515625 -0.296875 -0.84375q-0.28125 -0.328125 -0.578125 -0.46875q-0.71875 -0.296875 -1.59375 -0.625q-0.875 -0.328125 -1.53125 -0.625q-0.65625 -0.28125 -0.953125 -0.71875q-0.28125 -0.4375 -0.28125 -0.953125zm14.5 1.53125q0.0625 -1.59375 -0.5625 -2.4375q-0.609375 -0.84375 -1.625 -0.84375q-1.09375 0 -1.796875 0.875q-0.6875 0.875 -0.6875 2.40625l4.671875 0zm-4.671875 0.4375q0 1.96875 0.765625 2.8125q0.765625 0.828125 2.0 0.828125q0.953125 0 1.609375 -0.546875q0.65625 -0.546875 0.953125 -1.34375l0.359375 0.140625q-0.21875 0.8125 -0.984375 1.578125q-0.765625 0.765625 -2.078125 0.765625q-1.671875 0 -2.734375 -1.09375q-1.046875 -1.09375 -1.046875 -3.140625q0 -1.8125 1.046875 -3.015625q1.0625 -1.203125 2.59375 -1.203125q1.375 0 2.390625 0.953125q1.03125 0.9375 1.03125 3.265625l-5.90625 0zm10.71875 -1.8125q0.734375 -1.171875 1.5625 -1.78125q0.84375 -0.625 1.71875 -0.625q0.71875 0 1.125 0.328125q0.40625 0.328125 0.40625 0.765625q0 0.359375 -0.1875 0.578125q-0.1875 0.21875 -0.546875 0.21875q-0.359375 0 -0.546875 -0.21875q-0.1875 -0.21875 -0.109375 -0.578125q0 -0.21875 -0.078125 -0.359375q-0.0625 -0.15625 -0.4375 -0.15625q-0.578125 0 -1.421875 0.734375q-0.828125 0.71875 -1.484375 2.03125l0 3.9375q0 0.296875 0.171875 0.4375q0.1875 0.140625 0.484375 0.140625l1.59375 0l0 0.4375l-5.390625 0l0 -0.4375l1.46875 0q0.359375 0 0.5 -0.140625q0.15625 -0.140625 0.15625 -0.4375l0 -6.046875q0 -0.296875 -0.15625 -0.46875q-0.140625 -0.1875 -0.5 -0.1875l-1.390625 0l0 -0.4375l0.578125 0q0.515625 0 1.203125 -0.109375q0.703125 -0.109375 1.0625 -0.25l0.21875 0l0 2.625zm18.515625 5.96875q-1.3125 0 -2.046875 -0.609375q-0.734375 -0.625 -0.734375 -1.4375q0 -1.3125 1.125 -2.140625q1.140625 -0.84375 4.484375 -1.203125l0 -0.875q0 -0.734375 -0.328125 -1.203125q-0.328125 -0.46875 -1.484375 -0.46875q-1.234375 0 -1.75 0.40625q-0.515625 0.390625 -0.359375 0.828125q0.140625 0.296875 -0.015625 0.59375q-0.140625 0.28125 -0.578125 0.28125q-0.28125 0 -0.46875 -0.171875q-0.1875 -0.1875 -0.1875 -0.5625q0 -0.65625 0.953125 -1.234375q0.953125 -0.578125 2.328125 -0.578125q1.453125 0 2.1875 0.546875q0.734375 0.546875 0.734375 1.5625l0 4.8125q0 0.578125 0.109375 0.6875q0.109375 0.109375 0.390625 0.109375q0.375 0 0.515625 -0.328125q0.140625 -0.328125 0.140625 -0.90625l0.375 0q0 1.015625 -0.375 1.421875q-0.359375 0.390625 -0.9375 0.390625q-0.515625 0 -0.8125 -0.21875q-0.28125 -0.21875 -0.4375 -0.71875q-0.71875 0.5 -1.34375 0.765625q-0.609375 0.25 -1.484375 0.25zm-1.53125 -2.265625q0 0.65625 0.390625 1.203125q0.40625 0.546875 1.28125 0.546875q0.65625 0 1.3125 -0.25q0.65625 -0.25 1.375 -0.765625l0 -3.421875q-2.46875 0.296875 -3.421875 0.984375q-0.9375 0.6875 -0.9375 1.703125zm10.640625 4.453125l0.5 0l0 0.4375l-3.34375 0l0 -0.4375l0.4375 0q0.359375 0 0.5 -0.15625q0.15625 -0.140625 0.15625 -0.5l0 -8.59375q0 -0.296875 -0.15625 -0.46875q-0.140625 -0.1875 -0.5 -0.1875l-0.4375 0l0 -0.4375l0.65625 0q0.359375 0 0.6875 -0.078125q0.328125 -0.078125 0.625 -0.296875l0.140625 0l0 1.6875q0.515625 -0.734375 1.125 -1.09375q0.625 -0.375 1.34375 -0.375q1.46875 0 2.40625 0.984375q0.953125 0.984375 0.953125 3.09375q0 2.046875 -1.03125 3.140625q-1.015625 1.09375 -2.390625 1.09375q-0.796875 0 -1.34375 -0.25q-0.546875 -0.265625 -1.0625 -0.765625l0 2.546875q0 0.359375 0.21875 0.5q0.21875 0.15625 0.515625 0.15625zm-0.734375 -4.15625q0.359375 0.734375 0.90625 1.09375q0.546875 0.359375 1.28125 0.359375q1.015625 0 1.734375 -0.90625q0.734375 -0.90625 0.734375 -2.8125q0 -1.734375 -0.546875 -2.609375q-0.546875 -0.875 -1.640625 -0.875q-0.640625 0 -1.296875 0.40625q-0.65625 0.390625 -1.171875 1.265625l0 4.078125zm10.0625 4.15625l0.5 0l0 0.4375l-3.34375 0l0 -0.4375l0.4375 0q0.359375 0 0.5 -0.15625q0.15625 -0.140625 0.15625 -0.5l0 -8.59375q0 -0.296875 -0.15625 -0.46875q-0.140625 -0.1875 -0.5 -0.1875l-0.4375 0l0 -0.4375l0.65625 0q0.359375 0 0.6875 -0.078125q0.328125 -0.078125 0.625 -0.296875l0.140625 0l0 1.6875q0.515625 -0.734375 1.125 -1.09375q0.625 -0.375 1.34375 -0.375q1.46875 0 2.40625 0.984375q0.953125 0.984375 0.953125 3.09375q0 2.046875 -1.03125 3.140625q-1.015625 1.09375 -2.390625 1.09375q-0.796875 0 -1.34375 -0.25q-0.546875 -0.265625 -1.0625 -0.765625l0 2.546875q0 0.359375 0.21875 0.5q0.21875 0.15625 0.515625 0.15625zm-0.734375 -4.15625q0.359375 0.734375 0.90625 1.09375q0.546875 0.359375 1.28125 0.359375q1.015625 0 1.734375 -0.90625q0.734375 -0.90625 0.734375 -2.8125q0 -1.734375 -0.546875 -2.609375q-0.546875 -0.875 -1.640625 -0.875q-0.640625 0 -1.296875 0.40625q-0.65625 0.390625 -1.171875 1.265625l0 4.078125z" fill-rule="nonzero"/><path fill="#000000" fill-opacity="0.0" d="m463.87665 151.30971l0 34.29921" fill-rule="evenodd"/><path stroke="#000000" stroke-width="1.0" stroke-linejoin="round" stroke-linecap="butt" d="m463.87665 151.30971l0 28.29921" fill-rule="evenodd"/><path fill="#000000" stroke="#000000" stroke-width="1.0" stroke-linecap="butt" d="m462.2249 179.60892l1.6517334 4.538101l1.6517334 -4.538101z" fill-rule="evenodd"/><path fill="#000000" fill-opacity="0.0" d="m474.96063 147.45145l52.31494 0l0 42.015747l-52.31494 0z" fill-rule="evenodd"/><path fill="#000000" d="m493.14813 161.62144l0 0.4375l-0.296875 0q-0.140625 0 -0.328125 0.140625q-0.1875 0.140625 -0.25 0.515625l-1.96875 11.359375l-0.4375 0l-1.171875 -7.71875l-0.140625 0l-1.53125 7.71875l-0.4375 0l-1.75 -11.4375q0 -0.296875 -0.109375 -0.4375q-0.109375 -0.140625 -0.328125 -0.140625l-0.296875 0l0 -0.4375l2.5625 0l0 0.4375l-0.21875 0q-0.296875 0 -0.453125 0.140625q-0.140625 0.140625 -0.140625 0.4375l1.171875 8.015625l0.140625 0l1.25 -6.046875l-0.21875 -1.96875q0 -0.296875 -0.1875 -0.4375q-0.1875 -0.140625 -0.328125 -0.140625l-0.21875 0l0 -0.4375l2.46875 0l0 0.4375l-0.21875 0q-0.28125 0 -0.390625 0.140625q-0.109375 0.140625 -0.109375 0.4375l1.09375 7.796875l0.140625 0l1.3125 -7.65625q0.078125 -0.359375 -0.109375 -0.53125q-0.1875 -0.1875 -0.46875 -0.1875l-0.21875 0l0 -0.4375l2.1875 0z" fill-rule="nonzero"/><path fill="#000000" fill-opacity="0.0" d="m194.18767 186.19423l52.314957 0l0 42.015747l-52.314957 0z" fill-rule="evenodd"/><path fill="#000000" d="m212.37517 200.36423l0 0.4375l-0.296875 0q-0.140625 0 -0.328125 0.140625q-0.1875 0.140625 -0.25 0.515625l-1.96875 11.359375l-0.4375 0l-1.171875 -7.71875l-0.140625 0l-1.53125 7.71875l-0.4375 0l-1.75 -11.4375q0 -0.296875 -0.109375 -0.4375q-0.109375 -0.140625 -0.328125 -0.140625l-0.296875 0l0 -0.4375l2.5625 0l0 0.4375l-0.21875 0q-0.296875 0 -0.453125 0.140625q-0.140625 0.140625 -0.140625 0.4375l1.171875 8.015625l0.140625 0l1.25 -6.046875l-0.21875 -1.96875q0 -0.296875 -0.1875 -0.4375q-0.1875 -0.140625 -0.328125 -0.140625l-0.21875 0l0 -0.4375l2.46875 0l0 0.4375l-0.21875 0q-0.28125 0 -0.390625 0.140625q-0.109375 0.140625 -0.109375 0.4375l1.09375 7.796875l0.140625 0l1.3125 -7.65625q0.078125 -0.359375 -0.109375 -0.53125q-0.1875 -0.1875 -0.46875 -0.1875l-0.21875 0l0 -0.4375l2.1875 0z" fill-rule="nonzero"/><path fill="#000000" fill-opacity="0.0" d="m693.77954 189.4672l52.31494 0l0 42.015747l-52.31494 0z" fill-rule="evenodd"/><path fill="#000000" d="m711.96704 203.63719l0 0.4375l-0.296875 0q-0.140625 0 -0.328125 0.140625q-0.1875 0.140625 -0.25 0.515625l-1.96875 11.359375l-0.4375 0l-1.171875 -7.71875l-0.140625 0l-1.53125 7.71875l-0.4375 0l-1.75 -11.4375q0 -0.296875 -0.109375 -0.4375q-0.109375 -0.140625 -0.328125 -0.140625l-0.296875 0l0 -0.4375l2.5625 0l0 0.4375l-0.21875 0q-0.296875 0 -0.453125 0.140625q-0.140625 0.140625 -0.140625 0.4375l1.171875 8.015625l0.140625 0l1.25 -6.046875l-0.21875 -1.96875q0 -0.296875 -0.1875 -0.4375q-0.1875 -0.140625 -0.328125 -0.140625l-0.21875 0l0 -0.4375l2.46875 0l0 0.4375l-0.21875 0q-0.28125 0 -0.390625 0.140625q-0.109375 0.140625 -0.109375 0.4375l1.09375 7.796875l0.140625 0l1.3125 -7.65625q0.078125 -0.359375 -0.109375 -0.53125q-0.1875 -0.1875 -0.46875 -0.1875l-0.21875 0l0 -0.4375l2.1875 0z" fill-rule="nonzero"/><path fill="#000000" fill-opacity="0.0" d="m232.1916 257.0013l-1.5118103 -115.842514" fill-rule="evenodd"/><path stroke="#000000" stroke-width="1.0" stroke-linejoin="round" stroke-linecap="butt" d="m232.1916 257.0013l-1.4335327 -109.84303" fill-rule="evenodd"/><path fill="#000000" stroke="#000000" stroke-width="1.0" stroke-linecap="butt" d="m232.40968 147.13673l-1.7108154 -4.516159l-1.5923767 4.559265z" fill-rule="evenodd"/><path fill="#000000" fill-opacity="0.0" d="m693.77954 257.0l-1.5118408 -115.842514" fill-rule="evenodd"/><path stroke="#000000" stroke-width="1.0" stroke-linejoin="round" stroke-linecap="butt" d="m693.77954 257.0l-1.4334717 -109.84303" fill-rule="evenodd"/><path fill="#000000" stroke="#000000" stroke-width="1.0" stroke-linecap="butt" d="m693.9976 147.13542l-1.7108154 -4.516159l-1.5924072 4.559265z" fill-rule="evenodd"/></g></svg>